<svg xmlns="http://www.w3.org/2000/svg" width="850" height="340" viewBox="0 0 850 340">
  <defs>
    <linearGradient id="areaFill" x1="0" y1="0" x2="0" y2="1">
      <stop offset="0%" stop-color="#58a6ff" stop-opacity="0.45"/>
      <stop offset="100%" stop-color="#58a6ff" stop-opacity="0"/>
    </linearGradient>
  </defs>

  <!-- Background -->
  <rect width="100%" height="100%" fill="#0d1117" rx="8"/>

  <!-- Title -->
  <text x="425" y="33" font-family="'Segoe UI', Arial, sans-serif" font-size="17" fill="#F2C811" text-anchor="middle" font-weight="bold">pbi-cli Downloads Over Time</text>
  <text x="425" y="52" font-family="'Segoe UI', Arial, sans-serif" font-size="11" fill="#8b949e" text-anchor="middle">Cumulative installs from PyPI • mirrors excluded • source: pypistats.org</text>

  <!-- Gridlines & y-labels -->
  <line x1="70" y1="280.0" x2="810" y2="280.0" stroke="#21262d" stroke-width="1" stroke-dasharray="2,3"/><line x1="70" y1="239.6" x2="810" y2="239.6" stroke="#21262d" stroke-width="1" stroke-dasharray="2,3"/><line x1="70" y1="199.2" x2="810" y2="199.2" stroke="#21262d" stroke-width="1" stroke-dasharray="2,3"/><line x1="70" y1="158.8" x2="810" y2="158.8" stroke="#21262d" stroke-width="1" stroke-dasharray="2,3"/><line x1="70" y1="118.4" x2="810" y2="118.4" stroke="#21262d" stroke-width="1" stroke-dasharray="2,3"/><line x1="70" y1="78.0" x2="810" y2="78.0" stroke="#21262d" stroke-width="1" stroke-dasharray="2,3"/>
  <text x="62" y="284.0" font-family="'Segoe UI', Arial, sans-serif" font-size="10" fill="#8b949e" text-anchor="end">0</text><text x="62" y="243.6" font-family="'Segoe UI', Arial, sans-serif" font-size="10" fill="#8b949e" text-anchor="end">10,000</text><text x="62" y="203.2" font-family="'Segoe UI', Arial, sans-serif" font-size="10" fill="#8b949e" text-anchor="end">20,000</text><text x="62" y="162.8" font-family="'Segoe UI', Arial, sans-serif" font-size="10" fill="#8b949e" text-anchor="end">30,000</text><text x="62" y="122.4" font-family="'Segoe UI', Arial, sans-serif" font-size="10" fill="#8b949e" text-anchor="end">40,000</text><text x="62" y="82.0" font-family="'Segoe UI', Arial, sans-serif" font-size="10" fill="#8b949e" text-anchor="end">50,000</text>

  <!-- Area fill -->
  <path d="M 70.00,280 L 70.00,277.55 L 75.44,276.48 L 80.88,276.35 L 86.32,276.32 L 91.76,276.19 L 97.21,276.12 L 102.65,275.99 L 108.09,275.68 L 113.53,275.03 L 118.97,274.68 L 124.41,273.50 L 129.85,272.68 L 135.29,270.25 L 140.74,269.27 L 146.18,268.68 L 151.62,268.09 L 157.06,267.94 L 162.50,267.59 L 167.94,267.03 L 173.38,266.11 L 178.82,265.79 L 184.26,265.31 L 189.71,264.84 L 195.15,264.68 L 200.59,264.50 L 206.03,263.90 L 211.47,263.53 L 216.91,263.00 L 222.35,262.62 L 227.79,262.39 L 233.24,262.13 L 238.68,261.78 L 244.12,261.38 L 249.56,260.88 L 255.00,260.38 L 260.44,259.91 L 265.88,259.46 L 271.32,259.30 L 276.76,258.68 L 282.21,257.79 L 287.65,256.75 L 293.09,255.44 L 298.53,252.80 L 303.97,251.03 L 309.41,250.09 L 314.85,249.29 L 320.29,247.10 L 325.74,245.24 L 331.18,243.53 L 336.62,241.59 L 342.06,240.05 L 347.50,239.15 L 352.94,237.85 L 358.38,236.53 L 363.82,234.24 L 369.26,232.42 L 374.71,230.21 L 380.15,228.72 L 385.59,227.70 L 391.03,226.90 L 396.47,226.13 L 401.91,224.51 L 407.35,222.79 L 412.79,221.21 L 418.24,220.03 L 423.68,219.45 L 429.12,218.76 L 434.56,217.41 L 440.00,216.31 L 445.44,214.88 L 450.88,213.65 L 456.32,212.43 L 461.76,211.24 L 467.21,210.76 L 472.65,209.87 L 478.09,208.48 L 483.53,207.50 L 488.97,205.70 L 494.41,204.33 L 499.85,203.31 L 505.29,202.31 L 510.74,200.91 L 516.18,199.41 L 521.62,197.83 L 527.06,195.01 L 532.50,194.08 L 537.94,193.52 L 543.38,192.76 L 548.82,191.12 L 554.26,189.81 L 559.71,188.59 L 565.15,187.47 L 570.59,186.30 L 576.03,186.01 L 581.47,185.26 L 586.91,184.41 L 592.35,182.49 L 597.79,181.48 L 603.24,180.33 L 608.68,179.86 L 614.12,179.46 L 619.56,179.15 L 625.00,178.19 L 630.44,176.69 L 635.88,175.43 L 641.32,174.55 L 646.76,173.85 L 652.21,173.49 L 657.65,173.28 L 663.09,172.38 L 668.53,171.45 L 673.97,170.62 L 679.41,169.43 L 684.85,169.11 L 690.29,168.88 L 695.74,168.68 L 701.18,167.78 L 706.62,166.50 L 712.06,165.37 L 717.50,164.35 L 722.94,163.70 L 728.38,163.37 L 733.82,162.86 L 739.26,162.25 L 744.71,161.59 L 750.15,160.95 L 755.59,160.09 L 761.03,159.87 L 766.47,159.50 L 771.91,159.40 L 777.35,158.78 L 782.79,158.17 L 788.24,157.23 L 793.68,156.41 L 799.12,156.11 L 804.56,155.82 L 810.00,155.62 L 810.00,280 Z" fill="url(#areaFill)"/>

  <!-- Line -->
  <path d="M 70.00,277.55 L 75.44,276.48 L 80.88,276.35 L 86.32,276.32 L 91.76,276.19 L 97.21,276.12 L 102.65,275.99 L 108.09,275.68 L 113.53,275.03 L 118.97,274.68 L 124.41,273.50 L 129.85,272.68 L 135.29,270.25 L 140.74,269.27 L 146.18,268.68 L 151.62,268.09 L 157.06,267.94 L 162.50,267.59 L 167.94,267.03 L 173.38,266.11 L 178.82,265.79 L 184.26,265.31 L 189.71,264.84 L 195.15,264.68 L 200.59,264.50 L 206.03,263.90 L 211.47,263.53 L 216.91,263.00 L 222.35,262.62 L 227.79,262.39 L 233.24,262.13 L 238.68,261.78 L 244.12,261.38 L 249.56,260.88 L 255.00,260.38 L 260.44,259.91 L 265.88,259.46 L 271.32,259.30 L 276.76,258.68 L 282.21,257.79 L 287.65,256.75 L 293.09,255.44 L 298.53,252.80 L 303.97,251.03 L 309.41,250.09 L 314.85,249.29 L 320.29,247.10 L 325.74,245.24 L 331.18,243.53 L 336.62,241.59 L 342.06,240.05 L 347.50,239.15 L 352.94,237.85 L 358.38,236.53 L 363.82,234.24 L 369.26,232.42 L 374.71,230.21 L 380.15,228.72 L 385.59,227.70 L 391.03,226.90 L 396.47,226.13 L 401.91,224.51 L 407.35,222.79 L 412.79,221.21 L 418.24,220.03 L 423.68,219.45 L 429.12,218.76 L 434.56,217.41 L 440.00,216.31 L 445.44,214.88 L 450.88,213.65 L 456.32,212.43 L 461.76,211.24 L 467.21,210.76 L 472.65,209.87 L 478.09,208.48 L 483.53,207.50 L 488.97,205.70 L 494.41,204.33 L 499.85,203.31 L 505.29,202.31 L 510.74,200.91 L 516.18,199.41 L 521.62,197.83 L 527.06,195.01 L 532.50,194.08 L 537.94,193.52 L 543.38,192.76 L 548.82,191.12 L 554.26,189.81 L 559.71,188.59 L 565.15,187.47 L 570.59,186.30 L 576.03,186.01 L 581.47,185.26 L 586.91,184.41 L 592.35,182.49 L 597.79,181.48 L 603.24,180.33 L 608.68,179.86 L 614.12,179.46 L 619.56,179.15 L 625.00,178.19 L 630.44,176.69 L 635.88,175.43 L 641.32,174.55 L 646.76,173.85 L 652.21,173.49 L 657.65,173.28 L 663.09,172.38 L 668.53,171.45 L 673.97,170.62 L 679.41,169.43 L 684.85,169.11 L 690.29,168.88 L 695.74,168.68 L 701.18,167.78 L 706.62,166.50 L 712.06,165.37 L 717.50,164.35 L 722.94,163.70 L 728.38,163.37 L 733.82,162.86 L 739.26,162.25 L 744.71,161.59 L 750.15,160.95 L 755.59,160.09 L 761.03,159.87 L 766.47,159.50 L 771.91,159.40 L 777.35,158.78 L 782.79,158.17 L 788.24,157.23 L 793.68,156.41 L 799.12,156.11 L 804.56,155.82 L 810.00,155.62" fill="none" stroke="#58a6ff" stroke-width="2.5" stroke-linejoin="round" stroke-linecap="round"/>

  <!-- Data points -->
  <circle cx="70.00" cy="277.55" r="2.5" fill="#58a6ff"/><circle cx="75.44" cy="276.48" r="2.5" fill="#58a6ff"/><circle cx="80.88" cy="276.35" r="2.5" fill="#58a6ff"/><circle cx="86.32" cy="276.32" r="2.5" fill="#58a6ff"/><circle cx="91.76" cy="276.19" r="2.5" fill="#58a6ff"/><circle cx="97.21" cy="276.12" r="2.5" fill="#58a6ff"/><circle cx="102.65" cy="275.99" r="2.5" fill="#58a6ff"/><circle cx="108.09" cy="275.68" r="2.5" fill="#58a6ff"/><circle cx="113.53" cy="275.03" r="2.5" fill="#58a6ff"/><circle cx="118.97" cy="274.68" r="2.5" fill="#58a6ff"/><circle cx="124.41" cy="273.50" r="2.5" fill="#58a6ff"/><circle cx="129.85" cy="272.68" r="2.5" fill="#58a6ff"/><circle cx="135.29" cy="270.25" r="2.5" fill="#58a6ff"/><circle cx="140.74" cy="269.27" r="2.5" fill="#58a6ff"/><circle cx="146.18" cy="268.68" r="2.5" fill="#58a6ff"/><circle cx="151.62" cy="268.09" r="2.5" fill="#58a6ff"/><circle cx="157.06" cy="267.94" r="2.5" fill="#58a6ff"/><circle cx="162.50" cy="267.59" r="2.5" fill="#58a6ff"/><circle cx="167.94" cy="267.03" r="2.5" fill="#58a6ff"/><circle cx="173.38" cy="266.11" r="2.5" fill="#58a6ff"/><circle cx="178.82" cy="265.79" r="2.5" fill="#58a6ff"/><circle cx="184.26" cy="265.31" r="2.5" fill="#58a6ff"/><circle cx="189.71" cy="264.84" r="2.5" fill="#58a6ff"/><circle cx="195.15" cy="264.68" r="2.5" fill="#58a6ff"/><circle cx="200.59" cy="264.50" r="2.5" fill="#58a6ff"/><circle cx="206.03" cy="263.90" r="2.5" fill="#58a6ff"/><circle cx="211.47" cy="263.53" r="2.5" fill="#58a6ff"/><circle cx="216.91" cy="263.00" r="2.5" fill="#58a6ff"/><circle cx="222.35" cy="262.62" r="2.5" fill="#58a6ff"/><circle cx="227.79" cy="262.39" r="2.5" fill="#58a6ff"/><circle cx="233.24" cy="262.13" r="2.5" fill="#58a6ff"/><circle cx="238.68" cy="261.78" r="2.5" fill="#58a6ff"/><circle cx="244.12" cy="261.38" r="2.5" fill="#58a6ff"/><circle cx="249.56" cy="260.88" r="2.5" fill="#58a6ff"/><circle cx="255.00" cy="260.38" r="2.5" fill="#58a6ff"/><circle cx="260.44" cy="259.91" r="2.5" fill="#58a6ff"/><circle cx="265.88" cy="259.46" r="2.5" fill="#58a6ff"/><circle cx="271.32" cy="259.30" r="2.5" fill="#58a6ff"/><circle cx="276.76" cy="258.68" r="2.5" fill="#58a6ff"/><circle cx="282.21" cy="257.79" r="2.5" fill="#58a6ff"/><circle cx="287.65" cy="256.75" r="2.5" fill="#58a6ff"/><circle cx="293.09" cy="255.44" r="2.5" fill="#58a6ff"/><circle cx="298.53" cy="252.80" r="2.5" fill="#58a6ff"/><circle cx="303.97" cy="251.03" r="2.5" fill="#58a6ff"/><circle cx="309.41" cy="250.09" r="2.5" fill="#58a6ff"/><circle cx="314.85" cy="249.29" r="2.5" fill="#58a6ff"/><circle cx="320.29" cy="247.10" r="2.5" fill="#58a6ff"/><circle cx="325.74" cy="245.24" r="2.5" fill="#58a6ff"/><circle cx="331.18" cy="243.53" r="2.5" fill="#58a6ff"/><circle cx="336.62" cy="241.59" r="2.5" fill="#58a6ff"/><circle cx="342.06" cy="240.05" r="2.5" fill="#58a6ff"/><circle cx="347.50" cy="239.15" r="2.5" fill="#58a6ff"/><circle cx="352.94" cy="237.85" r="2.5" fill="#58a6ff"/><circle cx="358.38" cy="236.53" r="2.5" fill="#58a6ff"/><circle cx="363.82" cy="234.24" r="2.5" fill="#58a6ff"/><circle cx="369.26" cy="232.42" r="2.5" fill="#58a6ff"/><circle cx="374.71" cy="230.21" r="2.5" fill="#58a6ff"/><circle cx="380.15" cy="228.72" r="2.5" fill="#58a6ff"/><circle cx="385.59" cy="227.70" r="2.5" fill="#58a6ff"/><circle cx="391.03" cy="226.90" r="2.5" fill="#58a6ff"/><circle cx="396.47" cy="226.13" r="2.5" fill="#58a6ff"/><circle cx="401.91" cy="224.51" r="2.5" fill="#58a6ff"/><circle cx="407.35" cy="222.79" r="2.5" fill="#58a6ff"/><circle cx="412.79" cy="221.21" r="2.5" fill="#58a6ff"/><circle cx="418.24" cy="220.03" r="2.5" fill="#58a6ff"/><circle cx="423.68" cy="219.45" r="2.5" fill="#58a6ff"/><circle cx="429.12" cy="218.76" r="2.5" fill="#58a6ff"/><circle cx="434.56" cy="217.41" r="2.5" fill="#58a6ff"/><circle cx="440.00" cy="216.31" r="2.5" fill="#58a6ff"/><circle cx="445.44" cy="214.88" r="2.5" fill="#58a6ff"/><circle cx="450.88" cy="213.65" r="2.5" fill="#58a6ff"/><circle cx="456.32" cy="212.43" r="2.5" fill="#58a6ff"/><circle cx="461.76" cy="211.24" r="2.5" fill="#58a6ff"/><circle cx="467.21" cy="210.76" r="2.5" fill="#58a6ff"/><circle cx="472.65" cy="209.87" r="2.5" fill="#58a6ff"/><circle cx="478.09" cy="208.48" r="2.5" fill="#58a6ff"/><circle cx="483.53" cy="207.50" r="2.5" fill="#58a6ff"/><circle cx="488.97" cy="205.70" r="2.5" fill="#58a6ff"/><circle cx="494.41" cy="204.33" r="2.5" fill="#58a6ff"/><circle cx="499.85" cy="203.31" r="2.5" fill="#58a6ff"/><circle cx="505.29" cy="202.31" r="2.5" fill="#58a6ff"/><circle cx="510.74" cy="200.91" r="2.5" fill="#58a6ff"/><circle cx="516.18" cy="199.41" r="2.5" fill="#58a6ff"/><circle cx="521.62" cy="197.83" r="2.5" fill="#58a6ff"/><circle cx="527.06" cy="195.01" r="2.5" fill="#58a6ff"/><circle cx="532.50" cy="194.08" r="2.5" fill="#58a6ff"/><circle cx="537.94" cy="193.52" r="2.5" fill="#58a6ff"/><circle cx="543.38" cy="192.76" r="2.5" fill="#58a6ff"/><circle cx="548.82" cy="191.12" r="2.5" fill="#58a6ff"/><circle cx="554.26" cy="189.81" r="2.5" fill="#58a6ff"/><circle cx="559.71" cy="188.59" r="2.5" fill="#58a6ff"/><circle cx="565.15" cy="187.47" r="2.5" fill="#58a6ff"/><circle cx="570.59" cy="186.30" r="2.5" fill="#58a6ff"/><circle cx="576.03" cy="186.01" r="2.5" fill="#58a6ff"/><circle cx="581.47" cy="185.26" r="2.5" fill="#58a6ff"/><circle cx="586.91" cy="184.41" r="2.5" fill="#58a6ff"/><circle cx="592.35" cy="182.49" r="2.5" fill="#58a6ff"/><circle cx="597.79" cy="181.48" r="2.5" fill="#58a6ff"/><circle cx="603.24" cy="180.33" r="2.5" fill="#58a6ff"/><circle cx="608.68" cy="179.86" r="2.5" fill="#58a6ff"/><circle cx="614.12" cy="179.46" r="2.5" fill="#58a6ff"/><circle cx="619.56" cy="179.15" r="2.5" fill="#58a6ff"/><circle cx="625.00" cy="178.19" r="2.5" fill="#58a6ff"/><circle cx="630.44" cy="176.69" r="2.5" fill="#58a6ff"/><circle cx="635.88" cy="175.43" r="2.5" fill="#58a6ff"/><circle cx="641.32" cy="174.55" r="2.5" fill="#58a6ff"/><circle cx="646.76" cy="173.85" r="2.5" fill="#58a6ff"/><circle cx="652.21" cy="173.49" r="2.5" fill="#58a6ff"/><circle cx="657.65" cy="173.28" r="2.5" fill="#58a6ff"/><circle cx="663.09" cy="172.38" r="2.5" fill="#58a6ff"/><circle cx="668.53" cy="171.45" r="2.5" fill="#58a6ff"/><circle cx="673.97" cy="170.62" r="2.5" fill="#58a6ff"/><circle cx="679.41" cy="169.43" r="2.5" fill="#58a6ff"/><circle cx="684.85" cy="169.11" r="2.5" fill="#58a6ff"/><circle cx="690.29" cy="168.88" r="2.5" fill="#58a6ff"/><circle cx="695.74" cy="168.68" r="2.5" fill="#58a6ff"/><circle cx="701.18" cy="167.78" r="2.5" fill="#58a6ff"/><circle cx="706.62" cy="166.50" r="2.5" fill="#58a6ff"/><circle cx="712.06" cy="165.37" r="2.5" fill="#58a6ff"/><circle cx="717.50" cy="164.35" r="2.5" fill="#58a6ff"/><circle cx="722.94" cy="163.70" r="2.5" fill="#58a6ff"/><circle cx="728.38" cy="163.37" r="2.5" fill="#58a6ff"/><circle cx="733.82" cy="162.86" r="2.5" fill="#58a6ff"/><circle cx="739.26" cy="162.25" r="2.5" fill="#58a6ff"/><circle cx="744.71" cy="161.59" r="2.5" fill="#58a6ff"/><circle cx="750.15" cy="160.95" r="2.5" fill="#58a6ff"/><circle cx="755.59" cy="160.09" r="2.5" fill="#58a6ff"/><circle cx="761.03" cy="159.87" r="2.5" fill="#58a6ff"/><circle cx="766.47" cy="159.50" r="2.5" fill="#58a6ff"/><circle cx="771.91" cy="159.40" r="2.5" fill="#58a6ff"/><circle cx="777.35" cy="158.78" r="2.5" fill="#58a6ff"/><circle cx="782.79" cy="158.17" r="2.5" fill="#58a6ff"/><circle cx="788.24" cy="157.23" r="2.5" fill="#58a6ff"/><circle cx="793.68" cy="156.41" r="2.5" fill="#58a6ff"/><circle cx="799.12" cy="156.11" r="2.5" fill="#58a6ff"/><circle cx="804.56" cy="155.82" r="2.5" fill="#58a6ff"/><circle cx="810.00" cy="155.62" r="4" fill="#F2C811"/>

  <!-- Last-value callout -->
  <rect x="720.0" y="127.6" width="82" height="24" rx="4" fill="#0d1a2a" stroke="#F2C811" stroke-width="1"/>
  <text x="761.0" y="143.6" font-family="'Segoe UI', Arial, sans-serif" font-size="12" fill="#F2C811" text-anchor="middle" font-weight="bold">30,786 total</text>

  <!-- X-axis labels -->
  <text x="70.0" y="298" font-family="'Segoe UI', Arial, sans-serif" font-size="10" fill="#8b949e" text-anchor="middle">Mar 26</text><text x="255.0" y="298" font-family="'Segoe UI', Arial, sans-serif" font-size="10" fill="#8b949e" text-anchor="middle">Apr 29</text><text x="440.0" y="298" font-family="'Segoe UI', Arial, sans-serif" font-size="10" fill="#8b949e" text-anchor="middle">Jun 02</text><text x="625.0" y="298" font-family="'Segoe UI', Arial, sans-serif" font-size="10" fill="#8b949e" text-anchor="middle">Jul 06</text><text x="810.0" y="298" font-family="'Segoe UI', Arial, sans-serif" font-size="10" fill="#8b949e" text-anchor="middle">Aug 09</text>

  <!-- Footer: date range -->
  <text x="70" y="328" font-family="'Segoe UI', Arial, sans-serif" font-size="10" fill="#8b949e">Mar 26, 2026 → Aug 09, 2026</text>
  <text x="810" y="328" font-family="'Segoe UI', Arial, sans-serif" font-size="10" fill="#8b949e" text-anchor="end">137 days of data</text>
</svg>
