<svg xmlns="http://www.w3.org/2000/svg" width="850" height="340" viewBox="0 0 850 340">
  <defs>
    <linearGradient id="areaFill" x1="0" y1="0" x2="0" y2="1">
      <stop offset="0%" stop-color="#58a6ff" stop-opacity="0.45"/>
      <stop offset="100%" stop-color="#58a6ff" stop-opacity="0"/>
    </linearGradient>
  </defs>

  <!-- Background -->
  <rect width="100%" height="100%" fill="#0d1117" rx="8"/>

  <!-- Title -->
  <text x="425" y="33" font-family="'Segoe UI', Arial, sans-serif" font-size="17" fill="#F2C811" text-anchor="middle" font-weight="bold">pbi-cli Downloads Over Time</text>
  <text x="425" y="52" font-family="'Segoe UI', Arial, sans-serif" font-size="11" fill="#8b949e" text-anchor="middle">Cumulative installs from PyPI • mirrors excluded • source: pypistats.org</text>

  <!-- Gridlines & y-labels -->
  <line x1="70" y1="280.0" x2="810" y2="280.0" stroke="#21262d" stroke-width="1" stroke-dasharray="2,3"/><line x1="70" y1="239.6" x2="810" y2="239.6" stroke="#21262d" stroke-width="1" stroke-dasharray="2,3"/><line x1="70" y1="199.2" x2="810" y2="199.2" stroke="#21262d" stroke-width="1" stroke-dasharray="2,3"/><line x1="70" y1="158.8" x2="810" y2="158.8" stroke="#21262d" stroke-width="1" stroke-dasharray="2,3"/><line x1="70" y1="118.4" x2="810" y2="118.4" stroke="#21262d" stroke-width="1" stroke-dasharray="2,3"/><line x1="70" y1="78.0" x2="810" y2="78.0" stroke="#21262d" stroke-width="1" stroke-dasharray="2,3"/>
  <text x="62" y="284.0" font-family="'Segoe UI', Arial, sans-serif" font-size="10" fill="#8b949e" text-anchor="end">0</text><text x="62" y="243.6" font-family="'Segoe UI', Arial, sans-serif" font-size="10" fill="#8b949e" text-anchor="end">10,000</text><text x="62" y="203.2" font-family="'Segoe UI', Arial, sans-serif" font-size="10" fill="#8b949e" text-anchor="end">20,000</text><text x="62" y="162.8" font-family="'Segoe UI', Arial, sans-serif" font-size="10" fill="#8b949e" text-anchor="end">30,000</text><text x="62" y="122.4" font-family="'Segoe UI', Arial, sans-serif" font-size="10" fill="#8b949e" text-anchor="end">40,000</text><text x="62" y="82.0" font-family="'Segoe UI', Arial, sans-serif" font-size="10" fill="#8b949e" text-anchor="end">50,000</text>

  <!-- Area fill -->
  <path d="M 70.00,280 L 70.00,279.01 L 74.02,278.42 L 78.04,277.84 L 82.07,277.69 L 86.09,277.34 L 90.11,276.78 L 94.13,275.86 L 98.15,275.54 L 102.17,275.06 L 106.20,274.59 L 110.22,274.43 L 114.24,274.25 L 118.26,273.65 L 122.28,273.28 L 126.30,272.75 L 130.33,272.37 L 134.35,272.14 L 138.37,271.88 L 142.39,271.52 L 146.41,271.12 L 150.43,270.63 L 154.46,270.13 L 158.48,269.65 L 162.50,269.21 L 166.52,269.05 L 170.54,268.43 L 174.57,267.54 L 178.59,266.50 L 182.61,265.19 L 186.63,262.55 L 190.65,260.78 L 194.67,259.84 L 198.70,259.04 L 202.72,256.85 L 206.74,254.99 L 210.76,253.28 L 214.78,251.34 L 218.80,249.80 L 222.83,248.90 L 226.85,247.60 L 230.87,246.28 L 234.89,243.99 L 238.91,242.17 L 242.93,239.96 L 246.96,238.46 L 250.98,237.45 L 255.00,236.65 L 259.02,235.88 L 263.04,234.26 L 267.07,232.54 L 271.09,230.95 L 275.11,229.77 L 279.13,229.20 L 283.15,228.51 L 287.17,227.16 L 291.20,226.06 L 295.22,224.62 L 299.24,223.40 L 303.26,222.18 L 307.28,220.98 L 311.30,220.51 L 315.33,219.62 L 319.35,218.22 L 323.37,217.25 L 327.39,215.45 L 331.41,214.08 L 335.43,213.06 L 339.46,212.06 L 343.48,210.66 L 347.50,209.15 L 351.52,207.57 L 355.54,204.76 L 359.57,203.83 L 363.59,203.27 L 367.61,202.51 L 371.63,200.87 L 375.65,199.56 L 379.67,198.34 L 383.70,197.22 L 387.72,196.05 L 391.74,195.75 L 395.76,195.01 L 399.78,194.16 L 403.80,192.24 L 407.83,191.23 L 411.85,190.08 L 415.87,189.61 L 419.89,189.21 L 423.91,188.89 L 427.93,187.94 L 431.96,186.43 L 435.98,185.18 L 440.00,184.30 L 444.02,183.60 L 448.04,183.24 L 452.07,183.03 L 456.09,182.13 L 460.11,181.19 L 464.13,180.37 L 468.15,179.18 L 472.17,178.86 L 476.20,178.62 L 480.22,178.43 L 484.24,177.53 L 488.26,176.24 L 492.28,175.11 L 496.30,174.10 L 500.33,173.45 L 504.35,173.12 L 508.37,172.61 L 512.39,171.99 L 516.41,171.34 L 520.43,170.70 L 524.46,169.84 L 528.48,169.62 L 532.50,169.25 L 536.52,169.15 L 540.54,168.53 L 544.57,167.92 L 548.59,166.98 L 552.61,166.16 L 556.63,165.86 L 560.65,165.57 L 564.67,165.37 L 568.70,164.79 L 572.72,164.13 L 576.74,163.43 L 580.76,162.78 L 584.78,162.38 L 588.80,162.08 L 592.83,162.01 L 596.85,161.50 L 600.87,161.15 L 604.89,160.45 L 608.91,159.71 L 612.93,159.27 L 616.96,158.97 L 620.98,158.50 L 625.00,158.02 L 629.02,157.86 L 633.04,157.73 L 637.07,157.65 L 641.09,157.56 L 645.11,157.52 L 649.13,157.47 L 653.15,157.41 L 657.17,157.23 L 661.20,157.14 L 665.22,156.98 L 669.24,156.88 L 673.26,156.77 L 677.28,156.72 L 681.30,156.63 L 685.33,156.46 L 689.35,156.30 L 693.37,156.21 L 697.39,156.07 L 701.41,155.97 L 705.43,155.88 L 709.46,155.78 L 713.48,155.65 L 717.50,155.56 L 721.52,155.45 L 725.54,154.60 L 729.57,154.53 L 733.59,154.40 L 737.61,154.25 L 741.63,154.08 L 745.65,153.94 L 749.67,153.77 L 753.70,153.67 L 757.72,153.65 L 761.74,153.60 L 765.76,153.43 L 769.78,153.29 L 773.80,153.10 L 777.83,152.99 L 781.85,152.87 L 785.87,152.80 L 789.89,152.73 L 793.91,152.63 L 797.93,152.51 L 801.96,152.38 L 805.98,152.21 L 810.00,152.03 L 810.00,280 Z" fill="url(#areaFill)"/>

  <!-- Line -->
  <path d="M 70.00,279.01 L 74.02,278.42 L 78.04,277.84 L 82.07,277.69 L 86.09,277.34 L 90.11,276.78 L 94.13,275.86 L 98.15,275.54 L 102.17,275.06 L 106.20,274.59 L 110.22,274.43 L 114.24,274.25 L 118.26,273.65 L 122.28,273.28 L 126.30,272.75 L 130.33,272.37 L 134.35,272.14 L 138.37,271.88 L 142.39,271.52 L 146.41,271.12 L 150.43,270.63 L 154.46,270.13 L 158.48,269.65 L 162.50,269.21 L 166.52,269.05 L 170.54,268.43 L 174.57,267.54 L 178.59,266.50 L 182.61,265.19 L 186.63,262.55 L 190.65,260.78 L 194.67,259.84 L 198.70,259.04 L 202.72,256.85 L 206.74,254.99 L 210.76,253.28 L 214.78,251.34 L 218.80,249.80 L 222.83,248.90 L 226.85,247.60 L 230.87,246.28 L 234.89,243.99 L 238.91,242.17 L 242.93,239.96 L 246.96,238.46 L 250.98,237.45 L 255.00,236.65 L 259.02,235.88 L 263.04,234.26 L 267.07,232.54 L 271.09,230.95 L 275.11,229.77 L 279.13,229.20 L 283.15,228.51 L 287.17,227.16 L 291.20,226.06 L 295.22,224.62 L 299.24,223.40 L 303.26,222.18 L 307.28,220.98 L 311.30,220.51 L 315.33,219.62 L 319.35,218.22 L 323.37,217.25 L 327.39,215.45 L 331.41,214.08 L 335.43,213.06 L 339.46,212.06 L 343.48,210.66 L 347.50,209.15 L 351.52,207.57 L 355.54,204.76 L 359.57,203.83 L 363.59,203.27 L 367.61,202.51 L 371.63,200.87 L 375.65,199.56 L 379.67,198.34 L 383.70,197.22 L 387.72,196.05 L 391.74,195.75 L 395.76,195.01 L 399.78,194.16 L 403.80,192.24 L 407.83,191.23 L 411.85,190.08 L 415.87,189.61 L 419.89,189.21 L 423.91,188.89 L 427.93,187.94 L 431.96,186.43 L 435.98,185.18 L 440.00,184.30 L 444.02,183.60 L 448.04,183.24 L 452.07,183.03 L 456.09,182.13 L 460.11,181.19 L 464.13,180.37 L 468.15,179.18 L 472.17,178.86 L 476.20,178.62 L 480.22,178.43 L 484.24,177.53 L 488.26,176.24 L 492.28,175.11 L 496.30,174.10 L 500.33,173.45 L 504.35,173.12 L 508.37,172.61 L 512.39,171.99 L 516.41,171.34 L 520.43,170.70 L 524.46,169.84 L 528.48,169.62 L 532.50,169.25 L 536.52,169.15 L 540.54,168.53 L 544.57,167.92 L 548.59,166.98 L 552.61,166.16 L 556.63,165.86 L 560.65,165.57 L 564.67,165.37 L 568.70,164.79 L 572.72,164.13 L 576.74,163.43 L 580.76,162.78 L 584.78,162.38 L 588.80,162.08 L 592.83,162.01 L 596.85,161.50 L 600.87,161.15 L 604.89,160.45 L 608.91,159.71 L 612.93,159.27 L 616.96,158.97 L 620.98,158.50 L 625.00,158.02 L 629.02,157.86 L 633.04,157.73 L 637.07,157.65 L 641.09,157.56 L 645.11,157.52 L 649.13,157.47 L 653.15,157.41 L 657.17,157.23 L 661.20,157.14 L 665.22,156.98 L 669.24,156.88 L 673.26,156.77 L 677.28,156.72 L 681.30,156.63 L 685.33,156.46 L 689.35,156.30 L 693.37,156.21 L 697.39,156.07 L 701.41,155.97 L 705.43,155.88 L 709.46,155.78 L 713.48,155.65 L 717.50,155.56 L 721.52,155.45 L 725.54,154.60 L 729.57,154.53 L 733.59,154.40 L 737.61,154.25 L 741.63,154.08 L 745.65,153.94 L 749.67,153.77 L 753.70,153.67 L 757.72,153.65 L 761.74,153.60 L 765.76,153.43 L 769.78,153.29 L 773.80,153.10 L 777.83,152.99 L 781.85,152.87 L 785.87,152.80 L 789.89,152.73 L 793.91,152.63 L 797.93,152.51 L 801.96,152.38 L 805.98,152.21 L 810.00,152.03" fill="none" stroke="#58a6ff" stroke-width="2.5" stroke-linejoin="round" stroke-linecap="round"/>

  <!-- Data points -->
  <circle cx="70.00" cy="279.01" r="2.5" fill="#58a6ff"/><circle cx="74.02" cy="278.42" r="2.5" fill="#58a6ff"/><circle cx="78.04" cy="277.84" r="2.5" fill="#58a6ff"/><circle cx="82.07" cy="277.69" r="2.5" fill="#58a6ff"/><circle cx="86.09" cy="277.34" r="2.5" fill="#58a6ff"/><circle cx="90.11" cy="276.78" r="2.5" fill="#58a6ff"/><circle cx="94.13" cy="275.86" r="2.5" fill="#58a6ff"/><circle cx="98.15" cy="275.54" r="2.5" fill="#58a6ff"/><circle cx="102.17" cy="275.06" r="2.5" fill="#58a6ff"/><circle cx="106.20" cy="274.59" r="2.5" fill="#58a6ff"/><circle cx="110.22" cy="274.43" r="2.5" fill="#58a6ff"/><circle cx="114.24" cy="274.25" r="2.5" fill="#58a6ff"/><circle cx="118.26" cy="273.65" r="2.5" fill="#58a6ff"/><circle cx="122.28" cy="273.28" r="2.5" fill="#58a6ff"/><circle cx="126.30" cy="272.75" r="2.5" fill="#58a6ff"/><circle cx="130.33" cy="272.37" r="2.5" fill="#58a6ff"/><circle cx="134.35" cy="272.14" r="2.5" fill="#58a6ff"/><circle cx="138.37" cy="271.88" r="2.5" fill="#58a6ff"/><circle cx="142.39" cy="271.52" r="2.5" fill="#58a6ff"/><circle cx="146.41" cy="271.12" r="2.5" fill="#58a6ff"/><circle cx="150.43" cy="270.63" r="2.5" fill="#58a6ff"/><circle cx="154.46" cy="270.13" r="2.5" fill="#58a6ff"/><circle cx="158.48" cy="269.65" r="2.5" fill="#58a6ff"/><circle cx="162.50" cy="269.21" r="2.5" fill="#58a6ff"/><circle cx="166.52" cy="269.05" r="2.5" fill="#58a6ff"/><circle cx="170.54" cy="268.43" r="2.5" fill="#58a6ff"/><circle cx="174.57" cy="267.54" r="2.5" fill="#58a6ff"/><circle cx="178.59" cy="266.50" r="2.5" fill="#58a6ff"/><circle cx="182.61" cy="265.19" r="2.5" fill="#58a6ff"/><circle cx="186.63" cy="262.55" r="2.5" fill="#58a6ff"/><circle cx="190.65" cy="260.78" r="2.5" fill="#58a6ff"/><circle cx="194.67" cy="259.84" r="2.5" fill="#58a6ff"/><circle cx="198.70" cy="259.04" r="2.5" fill="#58a6ff"/><circle cx="202.72" cy="256.85" r="2.5" fill="#58a6ff"/><circle cx="206.74" cy="254.99" r="2.5" fill="#58a6ff"/><circle cx="210.76" cy="253.28" r="2.5" fill="#58a6ff"/><circle cx="214.78" cy="251.34" r="2.5" fill="#58a6ff"/><circle cx="218.80" cy="249.80" r="2.5" fill="#58a6ff"/><circle cx="222.83" cy="248.90" r="2.5" fill="#58a6ff"/><circle cx="226.85" cy="247.60" r="2.5" fill="#58a6ff"/><circle cx="230.87" cy="246.28" r="2.5" fill="#58a6ff"/><circle cx="234.89" cy="243.99" r="2.5" fill="#58a6ff"/><circle cx="238.91" cy="242.17" r="2.5" fill="#58a6ff"/><circle cx="242.93" cy="239.96" r="2.5" fill="#58a6ff"/><circle cx="246.96" cy="238.46" r="2.5" fill="#58a6ff"/><circle cx="250.98" cy="237.45" r="2.5" fill="#58a6ff"/><circle cx="255.00" cy="236.65" r="2.5" fill="#58a6ff"/><circle cx="259.02" cy="235.88" r="2.5" fill="#58a6ff"/><circle cx="263.04" cy="234.26" r="2.5" fill="#58a6ff"/><circle cx="267.07" cy="232.54" r="2.5" fill="#58a6ff"/><circle cx="271.09" cy="230.95" r="2.5" fill="#58a6ff"/><circle cx="275.11" cy="229.77" r="2.5" fill="#58a6ff"/><circle cx="279.13" cy="229.20" r="2.5" fill="#58a6ff"/><circle cx="283.15" cy="228.51" r="2.5" fill="#58a6ff"/><circle cx="287.17" cy="227.16" r="2.5" fill="#58a6ff"/><circle cx="291.20" cy="226.06" r="2.5" fill="#58a6ff"/><circle cx="295.22" cy="224.62" r="2.5" fill="#58a6ff"/><circle cx="299.24" cy="223.40" r="2.5" fill="#58a6ff"/><circle cx="303.26" cy="222.18" r="2.5" fill="#58a6ff"/><circle cx="307.28" cy="220.98" r="2.5" fill="#58a6ff"/><circle cx="311.30" cy="220.51" r="2.5" fill="#58a6ff"/><circle cx="315.33" cy="219.62" r="2.5" fill="#58a6ff"/><circle cx="319.35" cy="218.22" r="2.5" fill="#58a6ff"/><circle cx="323.37" cy="217.25" r="2.5" fill="#58a6ff"/><circle cx="327.39" cy="215.45" r="2.5" fill="#58a6ff"/><circle cx="331.41" cy="214.08" r="2.5" fill="#58a6ff"/><circle cx="335.43" cy="213.06" r="2.5" fill="#58a6ff"/><circle cx="339.46" cy="212.06" r="2.5" fill="#58a6ff"/><circle cx="343.48" cy="210.66" r="2.5" fill="#58a6ff"/><circle cx="347.50" cy="209.15" r="2.5" fill="#58a6ff"/><circle cx="351.52" cy="207.57" r="2.5" fill="#58a6ff"/><circle cx="355.54" cy="204.76" r="2.5" fill="#58a6ff"/><circle cx="359.57" cy="203.83" r="2.5" fill="#58a6ff"/><circle cx="363.59" cy="203.27" r="2.5" fill="#58a6ff"/><circle cx="367.61" cy="202.51" r="2.5" fill="#58a6ff"/><circle cx="371.63" cy="200.87" r="2.5" fill="#58a6ff"/><circle cx="375.65" cy="199.56" r="2.5" fill="#58a6ff"/><circle cx="379.67" cy="198.34" r="2.5" fill="#58a6ff"/><circle cx="383.70" cy="197.22" r="2.5" fill="#58a6ff"/><circle cx="387.72" cy="196.05" r="2.5" fill="#58a6ff"/><circle cx="391.74" cy="195.75" r="2.5" fill="#58a6ff"/><circle cx="395.76" cy="195.01" r="2.5" fill="#58a6ff"/><circle cx="399.78" cy="194.16" r="2.5" fill="#58a6ff"/><circle cx="403.80" cy="192.24" r="2.5" fill="#58a6ff"/><circle cx="407.83" cy="191.23" r="2.5" fill="#58a6ff"/><circle cx="411.85" cy="190.08" r="2.5" fill="#58a6ff"/><circle cx="415.87" cy="189.61" r="2.5" fill="#58a6ff"/><circle cx="419.89" cy="189.21" r="2.5" fill="#58a6ff"/><circle cx="423.91" cy="188.89" r="2.5" fill="#58a6ff"/><circle cx="427.93" cy="187.94" r="2.5" fill="#58a6ff"/><circle cx="431.96" cy="186.43" r="2.5" fill="#58a6ff"/><circle cx="435.98" cy="185.18" r="2.5" fill="#58a6ff"/><circle cx="440.00" cy="184.30" r="2.5" fill="#58a6ff"/><circle cx="444.02" cy="183.60" r="2.5" fill="#58a6ff"/><circle cx="448.04" cy="183.24" r="2.5" fill="#58a6ff"/><circle cx="452.07" cy="183.03" r="2.5" fill="#58a6ff"/><circle cx="456.09" cy="182.13" r="2.5" fill="#58a6ff"/><circle cx="460.11" cy="181.19" r="2.5" fill="#58a6ff"/><circle cx="464.13" cy="180.37" r="2.5" fill="#58a6ff"/><circle cx="468.15" cy="179.18" r="2.5" fill="#58a6ff"/><circle cx="472.17" cy="178.86" r="2.5" fill="#58a6ff"/><circle cx="476.20" cy="178.62" r="2.5" fill="#58a6ff"/><circle cx="480.22" cy="178.43" r="2.5" fill="#58a6ff"/><circle cx="484.24" cy="177.53" r="2.5" fill="#58a6ff"/><circle cx="488.26" cy="176.24" r="2.5" fill="#58a6ff"/><circle cx="492.28" cy="175.11" r="2.5" fill="#58a6ff"/><circle cx="496.30" cy="174.10" r="2.5" fill="#58a6ff"/><circle cx="500.33" cy="173.45" r="2.5" fill="#58a6ff"/><circle cx="504.35" cy="173.12" r="2.5" fill="#58a6ff"/><circle cx="508.37" cy="172.61" r="2.5" fill="#58a6ff"/><circle cx="512.39" cy="171.99" r="2.5" fill="#58a6ff"/><circle cx="516.41" cy="171.34" r="2.5" fill="#58a6ff"/><circle cx="520.43" cy="170.70" r="2.5" fill="#58a6ff"/><circle cx="524.46" cy="169.84" r="2.5" fill="#58a6ff"/><circle cx="528.48" cy="169.62" r="2.5" fill="#58a6ff"/><circle cx="532.50" cy="169.25" r="2.5" fill="#58a6ff"/><circle cx="536.52" cy="169.15" r="2.5" fill="#58a6ff"/><circle cx="540.54" cy="168.53" r="2.5" fill="#58a6ff"/><circle cx="544.57" cy="167.92" r="2.5" fill="#58a6ff"/><circle cx="548.59" cy="166.98" r="2.5" fill="#58a6ff"/><circle cx="552.61" cy="166.16" r="2.5" fill="#58a6ff"/><circle cx="556.63" cy="165.86" r="2.5" fill="#58a6ff"/><circle cx="560.65" cy="165.57" r="2.5" fill="#58a6ff"/><circle cx="564.67" cy="165.37" r="2.5" fill="#58a6ff"/><circle cx="568.70" cy="164.79" r="2.5" fill="#58a6ff"/><circle cx="572.72" cy="164.13" r="2.5" fill="#58a6ff"/><circle cx="576.74" cy="163.43" r="2.5" fill="#58a6ff"/><circle cx="580.76" cy="162.78" r="2.5" fill="#58a6ff"/><circle cx="584.78" cy="162.38" r="2.5" fill="#58a6ff"/><circle cx="588.80" cy="162.08" r="2.5" fill="#58a6ff"/><circle cx="592.83" cy="162.01" r="2.5" fill="#58a6ff"/><circle cx="596.85" cy="161.50" r="2.5" fill="#58a6ff"/><circle cx="600.87" cy="161.15" r="2.5" fill="#58a6ff"/><circle cx="604.89" cy="160.45" r="2.5" fill="#58a6ff"/><circle cx="608.91" cy="159.71" r="2.5" fill="#58a6ff"/><circle cx="612.93" cy="159.27" r="2.5" fill="#58a6ff"/><circle cx="616.96" cy="158.97" r="2.5" fill="#58a6ff"/><circle cx="620.98" cy="158.50" r="2.5" fill="#58a6ff"/><circle cx="625.00" cy="158.02" r="2.5" fill="#58a6ff"/><circle cx="629.02" cy="157.86" r="2.5" fill="#58a6ff"/><circle cx="633.04" cy="157.73" r="2.5" fill="#58a6ff"/><circle cx="637.07" cy="157.65" r="2.5" fill="#58a6ff"/><circle cx="641.09" cy="157.56" r="2.5" fill="#58a6ff"/><circle cx="645.11" cy="157.52" r="2.5" fill="#58a6ff"/><circle cx="649.13" cy="157.47" r="2.5" fill="#58a6ff"/><circle cx="653.15" cy="157.41" r="2.5" fill="#58a6ff"/><circle cx="657.17" cy="157.23" r="2.5" fill="#58a6ff"/><circle cx="661.20" cy="157.14" r="2.5" fill="#58a6ff"/><circle cx="665.22" cy="156.98" r="2.5" fill="#58a6ff"/><circle cx="669.24" cy="156.88" r="2.5" fill="#58a6ff"/><circle cx="673.26" cy="156.77" r="2.5" fill="#58a6ff"/><circle cx="677.28" cy="156.72" r="2.5" fill="#58a6ff"/><circle cx="681.30" cy="156.63" r="2.5" fill="#58a6ff"/><circle cx="685.33" cy="156.46" r="2.5" fill="#58a6ff"/><circle cx="689.35" cy="156.30" r="2.5" fill="#58a6ff"/><circle cx="693.37" cy="156.21" r="2.5" fill="#58a6ff"/><circle cx="697.39" cy="156.07" r="2.5" fill="#58a6ff"/><circle cx="701.41" cy="155.97" r="2.5" fill="#58a6ff"/><circle cx="705.43" cy="155.88" r="2.5" fill="#58a6ff"/><circle cx="709.46" cy="155.78" r="2.5" fill="#58a6ff"/><circle cx="713.48" cy="155.65" r="2.5" fill="#58a6ff"/><circle cx="717.50" cy="155.56" r="2.5" fill="#58a6ff"/><circle cx="721.52" cy="155.45" r="2.5" fill="#58a6ff"/><circle cx="725.54" cy="154.60" r="2.5" fill="#58a6ff"/><circle cx="729.57" cy="154.53" r="2.5" fill="#58a6ff"/><circle cx="733.59" cy="154.40" r="2.5" fill="#58a6ff"/><circle cx="737.61" cy="154.25" r="2.5" fill="#58a6ff"/><circle cx="741.63" cy="154.08" r="2.5" fill="#58a6ff"/><circle cx="745.65" cy="153.94" r="2.5" fill="#58a6ff"/><circle cx="749.67" cy="153.77" r="2.5" fill="#58a6ff"/><circle cx="753.70" cy="153.67" r="2.5" fill="#58a6ff"/><circle cx="757.72" cy="153.65" r="2.5" fill="#58a6ff"/><circle cx="761.74" cy="153.60" r="2.5" fill="#58a6ff"/><circle cx="765.76" cy="153.43" r="2.5" fill="#58a6ff"/><circle cx="769.78" cy="153.29" r="2.5" fill="#58a6ff"/><circle cx="773.80" cy="153.10" r="2.5" fill="#58a6ff"/><circle cx="777.83" cy="152.99" r="2.5" fill="#58a6ff"/><circle cx="781.85" cy="152.87" r="2.5" fill="#58a6ff"/><circle cx="785.87" cy="152.80" r="2.5" fill="#58a6ff"/><circle cx="789.89" cy="152.73" r="2.5" fill="#58a6ff"/><circle cx="793.91" cy="152.63" r="2.5" fill="#58a6ff"/><circle cx="797.93" cy="152.51" r="2.5" fill="#58a6ff"/><circle cx="801.96" cy="152.38" r="2.5" fill="#58a6ff"/><circle cx="805.98" cy="152.21" r="2.5" fill="#58a6ff"/><circle cx="810.00" cy="152.03" r="4" fill="#F2C811"/>

  <!-- Last-value callout -->
  <rect x="720.0" y="124.0" width="82" height="24" rx="4" fill="#0d1a2a" stroke="#F2C811" stroke-width="1"/>
  <text x="761.0" y="140.0" font-family="'Segoe UI', Arial, sans-serif" font-size="12" fill="#F2C811" text-anchor="middle" font-weight="bold">31,676 total</text>

  <!-- X-axis labels -->
  <text x="70.0" y="298" font-family="'Segoe UI', Arial, sans-serif" font-size="10" fill="#8b949e" text-anchor="middle">Apr 08</text><text x="255.0" y="298" font-family="'Segoe UI', Arial, sans-serif" font-size="10" fill="#8b949e" text-anchor="middle">May 24</text><text x="440.0" y="298" font-family="'Segoe UI', Arial, sans-serif" font-size="10" fill="#8b949e" text-anchor="middle">Jul 09</text><text x="625.0" y="298" font-family="'Segoe UI', Arial, sans-serif" font-size="10" fill="#8b949e" text-anchor="middle">Aug 24</text><text x="810.0" y="298" font-family="'Segoe UI', Arial, sans-serif" font-size="10" fill="#8b949e" text-anchor="middle">Oct 09</text>

  <!-- Footer: date range -->
  <text x="70" y="328" font-family="'Segoe UI', Arial, sans-serif" font-size="10" fill="#8b949e">Apr 08, 2026 → Oct 09, 2026</text>
  <text x="810" y="328" font-family="'Segoe UI', Arial, sans-serif" font-size="10" fill="#8b949e" text-anchor="end">185 days of data</text>
</svg>
