<svg xmlns="http://www.w3.org/2000/svg" width="850" height="340" viewBox="0 0 850 340">
  <defs>
    <linearGradient id="areaFill" x1="0" y1="0" x2="0" y2="1">
      <stop offset="0%" stop-color="#58a6ff" stop-opacity="0.45"/>
      <stop offset="100%" stop-color="#58a6ff" stop-opacity="0"/>
    </linearGradient>
  </defs>

  <!-- Background -->
  <rect width="100%" height="100%" fill="#0d1117" rx="8"/>

  <!-- Title -->
  <text x="425" y="33" font-family="'Segoe UI', Arial, sans-serif" font-size="17" fill="#F2C811" text-anchor="middle" font-weight="bold">pbi-cli Downloads Over Time</text>
  <text x="425" y="52" font-family="'Segoe UI', Arial, sans-serif" font-size="11" fill="#8b949e" text-anchor="middle">Cumulative installs from PyPI • mirrors excluded • source: pypistats.org</text>

  <!-- Gridlines & y-labels -->
  <line x1="70" y1="280.0" x2="810" y2="280.0" stroke="#21262d" stroke-width="1" stroke-dasharray="2,3"/><line x1="70" y1="239.6" x2="810" y2="239.6" stroke="#21262d" stroke-width="1" stroke-dasharray="2,3"/><line x1="70" y1="199.2" x2="810" y2="199.2" stroke="#21262d" stroke-width="1" stroke-dasharray="2,3"/><line x1="70" y1="158.8" x2="810" y2="158.8" stroke="#21262d" stroke-width="1" stroke-dasharray="2,3"/><line x1="70" y1="118.4" x2="810" y2="118.4" stroke="#21262d" stroke-width="1" stroke-dasharray="2,3"/><line x1="70" y1="78.0" x2="810" y2="78.0" stroke="#21262d" stroke-width="1" stroke-dasharray="2,3"/>
  <text x="62" y="284.0" font-family="'Segoe UI', Arial, sans-serif" font-size="10" fill="#8b949e" text-anchor="end">0</text><text x="62" y="243.6" font-family="'Segoe UI', Arial, sans-serif" font-size="10" fill="#8b949e" text-anchor="end">10,000</text><text x="62" y="203.2" font-family="'Segoe UI', Arial, sans-serif" font-size="10" fill="#8b949e" text-anchor="end">20,000</text><text x="62" y="162.8" font-family="'Segoe UI', Arial, sans-serif" font-size="10" fill="#8b949e" text-anchor="end">30,000</text><text x="62" y="122.4" font-family="'Segoe UI', Arial, sans-serif" font-size="10" fill="#8b949e" text-anchor="end">40,000</text><text x="62" y="82.0" font-family="'Segoe UI', Arial, sans-serif" font-size="10" fill="#8b949e" text-anchor="end">50,000</text>

  <!-- Area fill -->
  <path d="M 70.00,280 L 70.00,277.55 L 75.92,276.48 L 81.84,276.35 L 87.76,276.32 L 93.68,276.19 L 99.60,276.12 L 105.52,275.99 L 111.44,275.68 L 117.36,275.03 L 123.28,274.68 L 129.20,273.50 L 135.12,272.68 L 141.04,270.25 L 146.96,269.27 L 152.88,268.68 L 158.80,268.09 L 164.72,267.94 L 170.64,267.59 L 176.56,267.03 L 182.48,266.11 L 188.40,265.79 L 194.32,265.31 L 200.24,264.84 L 206.16,264.68 L 212.08,264.50 L 218.00,263.90 L 223.92,263.53 L 229.84,263.00 L 235.76,262.62 L 241.68,262.39 L 247.60,262.13 L 253.52,261.78 L 259.44,261.38 L 265.36,260.88 L 271.28,260.38 L 277.20,259.91 L 283.12,259.46 L 289.04,259.30 L 294.96,258.68 L 300.88,257.79 L 306.80,256.75 L 312.72,255.44 L 318.64,252.80 L 324.56,251.03 L 330.48,250.09 L 336.40,249.29 L 342.32,247.10 L 348.24,245.24 L 354.16,243.53 L 360.08,241.59 L 366.00,240.05 L 371.92,239.15 L 377.84,237.85 L 383.76,236.53 L 389.68,234.24 L 395.60,232.42 L 401.52,230.21 L 407.44,228.72 L 413.36,227.70 L 419.28,226.90 L 425.20,226.13 L 431.12,224.51 L 437.04,222.79 L 442.96,221.21 L 448.88,220.03 L 454.80,219.45 L 460.72,218.76 L 466.64,217.41 L 472.56,216.31 L 478.48,214.88 L 484.40,213.65 L 490.32,212.43 L 496.24,211.24 L 502.16,210.76 L 508.08,209.87 L 514.00,208.48 L 519.92,207.50 L 525.84,205.70 L 531.76,204.33 L 537.68,203.31 L 543.60,202.31 L 549.52,200.91 L 555.44,199.41 L 561.36,197.83 L 567.28,195.01 L 573.20,194.08 L 579.12,193.52 L 585.04,192.76 L 590.96,191.12 L 596.88,189.81 L 602.80,188.59 L 608.72,187.47 L 614.64,186.30 L 620.56,186.01 L 626.48,185.26 L 632.40,184.41 L 638.32,182.49 L 644.24,181.48 L 650.16,180.33 L 656.08,179.86 L 662.00,179.46 L 667.92,179.15 L 673.84,178.19 L 679.76,176.69 L 685.68,175.43 L 691.60,174.55 L 697.52,173.85 L 703.44,173.49 L 709.36,173.28 L 715.28,172.38 L 721.20,171.45 L 727.12,170.62 L 733.04,169.43 L 738.96,169.11 L 744.88,168.88 L 750.80,168.68 L 756.72,167.78 L 762.64,166.50 L 768.56,165.37 L 774.48,164.35 L 780.40,163.70 L 786.32,163.37 L 792.24,162.86 L 798.16,162.25 L 804.08,161.59 L 810.00,160.95 L 810.00,280 Z" fill="url(#areaFill)"/>

  <!-- Line -->
  <path d="M 70.00,277.55 L 75.92,276.48 L 81.84,276.35 L 87.76,276.32 L 93.68,276.19 L 99.60,276.12 L 105.52,275.99 L 111.44,275.68 L 117.36,275.03 L 123.28,274.68 L 129.20,273.50 L 135.12,272.68 L 141.04,270.25 L 146.96,269.27 L 152.88,268.68 L 158.80,268.09 L 164.72,267.94 L 170.64,267.59 L 176.56,267.03 L 182.48,266.11 L 188.40,265.79 L 194.32,265.31 L 200.24,264.84 L 206.16,264.68 L 212.08,264.50 L 218.00,263.90 L 223.92,263.53 L 229.84,263.00 L 235.76,262.62 L 241.68,262.39 L 247.60,262.13 L 253.52,261.78 L 259.44,261.38 L 265.36,260.88 L 271.28,260.38 L 277.20,259.91 L 283.12,259.46 L 289.04,259.30 L 294.96,258.68 L 300.88,257.79 L 306.80,256.75 L 312.72,255.44 L 318.64,252.80 L 324.56,251.03 L 330.48,250.09 L 336.40,249.29 L 342.32,247.10 L 348.24,245.24 L 354.16,243.53 L 360.08,241.59 L 366.00,240.05 L 371.92,239.15 L 377.84,237.85 L 383.76,236.53 L 389.68,234.24 L 395.60,232.42 L 401.52,230.21 L 407.44,228.72 L 413.36,227.70 L 419.28,226.90 L 425.20,226.13 L 431.12,224.51 L 437.04,222.79 L 442.96,221.21 L 448.88,220.03 L 454.80,219.45 L 460.72,218.76 L 466.64,217.41 L 472.56,216.31 L 478.48,214.88 L 484.40,213.65 L 490.32,212.43 L 496.24,211.24 L 502.16,210.76 L 508.08,209.87 L 514.00,208.48 L 519.92,207.50 L 525.84,205.70 L 531.76,204.33 L 537.68,203.31 L 543.60,202.31 L 549.52,200.91 L 555.44,199.41 L 561.36,197.83 L 567.28,195.01 L 573.20,194.08 L 579.12,193.52 L 585.04,192.76 L 590.96,191.12 L 596.88,189.81 L 602.80,188.59 L 608.72,187.47 L 614.64,186.30 L 620.56,186.01 L 626.48,185.26 L 632.40,184.41 L 638.32,182.49 L 644.24,181.48 L 650.16,180.33 L 656.08,179.86 L 662.00,179.46 L 667.92,179.15 L 673.84,178.19 L 679.76,176.69 L 685.68,175.43 L 691.60,174.55 L 697.52,173.85 L 703.44,173.49 L 709.36,173.28 L 715.28,172.38 L 721.20,171.45 L 727.12,170.62 L 733.04,169.43 L 738.96,169.11 L 744.88,168.88 L 750.80,168.68 L 756.72,167.78 L 762.64,166.50 L 768.56,165.37 L 774.48,164.35 L 780.40,163.70 L 786.32,163.37 L 792.24,162.86 L 798.16,162.25 L 804.08,161.59 L 810.00,160.95" fill="none" stroke="#58a6ff" stroke-width="2.5" stroke-linejoin="round" stroke-linecap="round"/>

  <!-- Data points -->
  <circle cx="70.00" cy="277.55" r="2.5" fill="#58a6ff"/><circle cx="75.92" cy="276.48" r="2.5" fill="#58a6ff"/><circle cx="81.84" cy="276.35" r="2.5" fill="#58a6ff"/><circle cx="87.76" cy="276.32" r="2.5" fill="#58a6ff"/><circle cx="93.68" cy="276.19" r="2.5" fill="#58a6ff"/><circle cx="99.60" cy="276.12" r="2.5" fill="#58a6ff"/><circle cx="105.52" cy="275.99" r="2.5" fill="#58a6ff"/><circle cx="111.44" cy="275.68" r="2.5" fill="#58a6ff"/><circle cx="117.36" cy="275.03" r="2.5" fill="#58a6ff"/><circle cx="123.28" cy="274.68" r="2.5" fill="#58a6ff"/><circle cx="129.20" cy="273.50" r="2.5" fill="#58a6ff"/><circle cx="135.12" cy="272.68" r="2.5" fill="#58a6ff"/><circle cx="141.04" cy="270.25" r="2.5" fill="#58a6ff"/><circle cx="146.96" cy="269.27" r="2.5" fill="#58a6ff"/><circle cx="152.88" cy="268.68" r="2.5" fill="#58a6ff"/><circle cx="158.80" cy="268.09" r="2.5" fill="#58a6ff"/><circle cx="164.72" cy="267.94" r="2.5" fill="#58a6ff"/><circle cx="170.64" cy="267.59" r="2.5" fill="#58a6ff"/><circle cx="176.56" cy="267.03" r="2.5" fill="#58a6ff"/><circle cx="182.48" cy="266.11" r="2.5" fill="#58a6ff"/><circle cx="188.40" cy="265.79" r="2.5" fill="#58a6ff"/><circle cx="194.32" cy="265.31" r="2.5" fill="#58a6ff"/><circle cx="200.24" cy="264.84" r="2.5" fill="#58a6ff"/><circle cx="206.16" cy="264.68" r="2.5" fill="#58a6ff"/><circle cx="212.08" cy="264.50" r="2.5" fill="#58a6ff"/><circle cx="218.00" cy="263.90" r="2.5" fill="#58a6ff"/><circle cx="223.92" cy="263.53" r="2.5" fill="#58a6ff"/><circle cx="229.84" cy="263.00" r="2.5" fill="#58a6ff"/><circle cx="235.76" cy="262.62" r="2.5" fill="#58a6ff"/><circle cx="241.68" cy="262.39" r="2.5" fill="#58a6ff"/><circle cx="247.60" cy="262.13" r="2.5" fill="#58a6ff"/><circle cx="253.52" cy="261.78" r="2.5" fill="#58a6ff"/><circle cx="259.44" cy="261.38" r="2.5" fill="#58a6ff"/><circle cx="265.36" cy="260.88" r="2.5" fill="#58a6ff"/><circle cx="271.28" cy="260.38" r="2.5" fill="#58a6ff"/><circle cx="277.20" cy="259.91" r="2.5" fill="#58a6ff"/><circle cx="283.12" cy="259.46" r="2.5" fill="#58a6ff"/><circle cx="289.04" cy="259.30" r="2.5" fill="#58a6ff"/><circle cx="294.96" cy="258.68" r="2.5" fill="#58a6ff"/><circle cx="300.88" cy="257.79" r="2.5" fill="#58a6ff"/><circle cx="306.80" cy="256.75" r="2.5" fill="#58a6ff"/><circle cx="312.72" cy="255.44" r="2.5" fill="#58a6ff"/><circle cx="318.64" cy="252.80" r="2.5" fill="#58a6ff"/><circle cx="324.56" cy="251.03" r="2.5" fill="#58a6ff"/><circle cx="330.48" cy="250.09" r="2.5" fill="#58a6ff"/><circle cx="336.40" cy="249.29" r="2.5" fill="#58a6ff"/><circle cx="342.32" cy="247.10" r="2.5" fill="#58a6ff"/><circle cx="348.24" cy="245.24" r="2.5" fill="#58a6ff"/><circle cx="354.16" cy="243.53" r="2.5" fill="#58a6ff"/><circle cx="360.08" cy="241.59" r="2.5" fill="#58a6ff"/><circle cx="366.00" cy="240.05" r="2.5" fill="#58a6ff"/><circle cx="371.92" cy="239.15" r="2.5" fill="#58a6ff"/><circle cx="377.84" cy="237.85" r="2.5" fill="#58a6ff"/><circle cx="383.76" cy="236.53" r="2.5" fill="#58a6ff"/><circle cx="389.68" cy="234.24" r="2.5" fill="#58a6ff"/><circle cx="395.60" cy="232.42" r="2.5" fill="#58a6ff"/><circle cx="401.52" cy="230.21" r="2.5" fill="#58a6ff"/><circle cx="407.44" cy="228.72" r="2.5" fill="#58a6ff"/><circle cx="413.36" cy="227.70" r="2.5" fill="#58a6ff"/><circle cx="419.28" cy="226.90" r="2.5" fill="#58a6ff"/><circle cx="425.20" cy="226.13" r="2.5" fill="#58a6ff"/><circle cx="431.12" cy="224.51" r="2.5" fill="#58a6ff"/><circle cx="437.04" cy="222.79" r="2.5" fill="#58a6ff"/><circle cx="442.96" cy="221.21" r="2.5" fill="#58a6ff"/><circle cx="448.88" cy="220.03" r="2.5" fill="#58a6ff"/><circle cx="454.80" cy="219.45" r="2.5" fill="#58a6ff"/><circle cx="460.72" cy="218.76" r="2.5" fill="#58a6ff"/><circle cx="466.64" cy="217.41" r="2.5" fill="#58a6ff"/><circle cx="472.56" cy="216.31" r="2.5" fill="#58a6ff"/><circle cx="478.48" cy="214.88" r="2.5" fill="#58a6ff"/><circle cx="484.40" cy="213.65" r="2.5" fill="#58a6ff"/><circle cx="490.32" cy="212.43" r="2.5" fill="#58a6ff"/><circle cx="496.24" cy="211.24" r="2.5" fill="#58a6ff"/><circle cx="502.16" cy="210.76" r="2.5" fill="#58a6ff"/><circle cx="508.08" cy="209.87" r="2.5" fill="#58a6ff"/><circle cx="514.00" cy="208.48" r="2.5" fill="#58a6ff"/><circle cx="519.92" cy="207.50" r="2.5" fill="#58a6ff"/><circle cx="525.84" cy="205.70" r="2.5" fill="#58a6ff"/><circle cx="531.76" cy="204.33" r="2.5" fill="#58a6ff"/><circle cx="537.68" cy="203.31" r="2.5" fill="#58a6ff"/><circle cx="543.60" cy="202.31" r="2.5" fill="#58a6ff"/><circle cx="549.52" cy="200.91" r="2.5" fill="#58a6ff"/><circle cx="555.44" cy="199.41" r="2.5" fill="#58a6ff"/><circle cx="561.36" cy="197.83" r="2.5" fill="#58a6ff"/><circle cx="567.28" cy="195.01" r="2.5" fill="#58a6ff"/><circle cx="573.20" cy="194.08" r="2.5" fill="#58a6ff"/><circle cx="579.12" cy="193.52" r="2.5" fill="#58a6ff"/><circle cx="585.04" cy="192.76" r="2.5" fill="#58a6ff"/><circle cx="590.96" cy="191.12" r="2.5" fill="#58a6ff"/><circle cx="596.88" cy="189.81" r="2.5" fill="#58a6ff"/><circle cx="602.80" cy="188.59" r="2.5" fill="#58a6ff"/><circle cx="608.72" cy="187.47" r="2.5" fill="#58a6ff"/><circle cx="614.64" cy="186.30" r="2.5" fill="#58a6ff"/><circle cx="620.56" cy="186.01" r="2.5" fill="#58a6ff"/><circle cx="626.48" cy="185.26" r="2.5" fill="#58a6ff"/><circle cx="632.40" cy="184.41" r="2.5" fill="#58a6ff"/><circle cx="638.32" cy="182.49" r="2.5" fill="#58a6ff"/><circle cx="644.24" cy="181.48" r="2.5" fill="#58a6ff"/><circle cx="650.16" cy="180.33" r="2.5" fill="#58a6ff"/><circle cx="656.08" cy="179.86" r="2.5" fill="#58a6ff"/><circle cx="662.00" cy="179.46" r="2.5" fill="#58a6ff"/><circle cx="667.92" cy="179.15" r="2.5" fill="#58a6ff"/><circle cx="673.84" cy="178.19" r="2.5" fill="#58a6ff"/><circle cx="679.76" cy="176.69" r="2.5" fill="#58a6ff"/><circle cx="685.68" cy="175.43" r="2.5" fill="#58a6ff"/><circle cx="691.60" cy="174.55" r="2.5" fill="#58a6ff"/><circle cx="697.52" cy="173.85" r="2.5" fill="#58a6ff"/><circle cx="703.44" cy="173.49" r="2.5" fill="#58a6ff"/><circle cx="709.36" cy="173.28" r="2.5" fill="#58a6ff"/><circle cx="715.28" cy="172.38" r="2.5" fill="#58a6ff"/><circle cx="721.20" cy="171.45" r="2.5" fill="#58a6ff"/><circle cx="727.12" cy="170.62" r="2.5" fill="#58a6ff"/><circle cx="733.04" cy="169.43" r="2.5" fill="#58a6ff"/><circle cx="738.96" cy="169.11" r="2.5" fill="#58a6ff"/><circle cx="744.88" cy="168.88" r="2.5" fill="#58a6ff"/><circle cx="750.80" cy="168.68" r="2.5" fill="#58a6ff"/><circle cx="756.72" cy="167.78" r="2.5" fill="#58a6ff"/><circle cx="762.64" cy="166.50" r="2.5" fill="#58a6ff"/><circle cx="768.56" cy="165.37" r="2.5" fill="#58a6ff"/><circle cx="774.48" cy="164.35" r="2.5" fill="#58a6ff"/><circle cx="780.40" cy="163.70" r="2.5" fill="#58a6ff"/><circle cx="786.32" cy="163.37" r="2.5" fill="#58a6ff"/><circle cx="792.24" cy="162.86" r="2.5" fill="#58a6ff"/><circle cx="798.16" cy="162.25" r="2.5" fill="#58a6ff"/><circle cx="804.08" cy="161.59" r="2.5" fill="#58a6ff"/><circle cx="810.00" cy="160.95" r="4" fill="#F2C811"/>

  <!-- Last-value callout -->
  <rect x="720.0" y="133.0" width="82" height="24" rx="4" fill="#0d1a2a" stroke="#F2C811" stroke-width="1"/>
  <text x="761.0" y="149.0" font-family="'Segoe UI', Arial, sans-serif" font-size="12" fill="#F2C811" text-anchor="middle" font-weight="bold">29,467 total</text>

  <!-- X-axis labels -->
  <text x="70.0" y="298" font-family="'Segoe UI', Arial, sans-serif" font-size="10" fill="#8b949e" text-anchor="middle">Mar 26</text><text x="253.5" y="298" font-family="'Segoe UI', Arial, sans-serif" font-size="10" fill="#8b949e" text-anchor="middle">Apr 26</text><text x="443.0" y="298" font-family="'Segoe UI', Arial, sans-serif" font-size="10" fill="#8b949e" text-anchor="middle">May 28</text><text x="626.5" y="298" font-family="'Segoe UI', Arial, sans-serif" font-size="10" fill="#8b949e" text-anchor="middle">Jun 28</text><text x="810.0" y="298" font-family="'Segoe UI', Arial, sans-serif" font-size="10" fill="#8b949e" text-anchor="middle">Jul 29</text>

  <!-- Footer: date range -->
  <text x="70" y="328" font-family="'Segoe UI', Arial, sans-serif" font-size="10" fill="#8b949e">Mar 26, 2026 → Jul 29, 2026</text>
  <text x="810" y="328" font-family="'Segoe UI', Arial, sans-serif" font-size="10" fill="#8b949e" text-anchor="end">126 days of data</text>
</svg>
