<svg xmlns="http://www.w3.org/2000/svg" width="850" height="340" viewBox="0 0 850 340">
  <defs>
    <linearGradient id="areaFill" x1="0" y1="0" x2="0" y2="1">
      <stop offset="0%" stop-color="#58a6ff" stop-opacity="0.45"/>
      <stop offset="100%" stop-color="#58a6ff" stop-opacity="0"/>
    </linearGradient>
  </defs>

  <!-- Background -->
  <rect width="100%" height="100%" fill="#0d1117" rx="8"/>

  <!-- Title -->
  <text x="425" y="33" font-family="'Segoe UI', Arial, sans-serif" font-size="17" fill="#F2C811" text-anchor="middle" font-weight="bold">pbi-cli Downloads Over Time</text>
  <text x="425" y="52" font-family="'Segoe UI', Arial, sans-serif" font-size="11" fill="#8b949e" text-anchor="middle">Cumulative installs from PyPI • mirrors excluded • source: pypistats.org</text>

  <!-- Gridlines & y-labels -->
  <line x1="70" y1="280.0" x2="810" y2="280.0" stroke="#21262d" stroke-width="1" stroke-dasharray="2,3"/><line x1="70" y1="239.6" x2="810" y2="239.6" stroke="#21262d" stroke-width="1" stroke-dasharray="2,3"/><line x1="70" y1="199.2" x2="810" y2="199.2" stroke="#21262d" stroke-width="1" stroke-dasharray="2,3"/><line x1="70" y1="158.8" x2="810" y2="158.8" stroke="#21262d" stroke-width="1" stroke-dasharray="2,3"/><line x1="70" y1="118.4" x2="810" y2="118.4" stroke="#21262d" stroke-width="1" stroke-dasharray="2,3"/><line x1="70" y1="78.0" x2="810" y2="78.0" stroke="#21262d" stroke-width="1" stroke-dasharray="2,3"/>
  <text x="62" y="284.0" font-family="'Segoe UI', Arial, sans-serif" font-size="10" fill="#8b949e" text-anchor="end">0</text><text x="62" y="243.6" font-family="'Segoe UI', Arial, sans-serif" font-size="10" fill="#8b949e" text-anchor="end">10,000</text><text x="62" y="203.2" font-family="'Segoe UI', Arial, sans-serif" font-size="10" fill="#8b949e" text-anchor="end">20,000</text><text x="62" y="162.8" font-family="'Segoe UI', Arial, sans-serif" font-size="10" fill="#8b949e" text-anchor="end">30,000</text><text x="62" y="122.4" font-family="'Segoe UI', Arial, sans-serif" font-size="10" fill="#8b949e" text-anchor="end">40,000</text><text x="62" y="82.0" font-family="'Segoe UI', Arial, sans-serif" font-size="10" fill="#8b949e" text-anchor="end">50,000</text>

  <!-- Area fill -->
  <path d="M 70.00,280 L 70.00,277.55 L 76.27,276.48 L 82.54,276.35 L 88.81,276.32 L 95.08,276.19 L 101.36,276.12 L 107.63,275.99 L 113.90,275.68 L 120.17,275.03 L 126.44,274.68 L 132.71,273.50 L 138.98,272.68 L 145.25,270.25 L 151.53,269.27 L 157.80,268.68 L 164.07,268.09 L 170.34,267.94 L 176.61,267.59 L 182.88,267.03 L 189.15,266.11 L 195.42,265.79 L 201.69,265.31 L 207.97,264.84 L 214.24,264.68 L 220.51,264.50 L 226.78,263.90 L 233.05,263.53 L 239.32,263.00 L 245.59,262.62 L 251.86,262.39 L 258.14,262.13 L 264.41,261.78 L 270.68,261.38 L 276.95,260.88 L 283.22,260.38 L 289.49,259.91 L 295.76,259.46 L 302.03,259.30 L 308.31,258.68 L 314.58,257.79 L 320.85,256.75 L 327.12,255.44 L 333.39,252.80 L 339.66,251.03 L 345.93,250.09 L 352.20,249.29 L 358.47,247.10 L 364.75,245.24 L 371.02,243.53 L 377.29,241.59 L 383.56,240.05 L 389.83,239.15 L 396.10,237.85 L 402.37,236.53 L 408.64,234.24 L 414.92,232.42 L 421.19,230.21 L 427.46,228.72 L 433.73,227.70 L 440.00,226.90 L 446.27,226.13 L 452.54,224.51 L 458.81,222.79 L 465.08,221.21 L 471.36,220.03 L 477.63,219.45 L 483.90,218.76 L 490.17,217.41 L 496.44,216.31 L 502.71,214.88 L 508.98,213.65 L 515.25,212.43 L 521.53,211.24 L 527.80,210.76 L 534.07,209.87 L 540.34,208.48 L 546.61,207.50 L 552.88,205.70 L 559.15,204.33 L 565.42,203.31 L 571.69,202.31 L 577.97,200.91 L 584.24,199.41 L 590.51,197.83 L 596.78,195.01 L 603.05,194.08 L 609.32,193.52 L 615.59,192.76 L 621.86,191.12 L 628.14,189.81 L 634.41,188.59 L 640.68,187.47 L 646.95,186.30 L 653.22,186.01 L 659.49,185.26 L 665.76,184.41 L 672.03,182.49 L 678.31,181.48 L 684.58,180.33 L 690.85,179.86 L 697.12,179.46 L 703.39,179.15 L 709.66,178.19 L 715.93,176.69 L 722.20,175.43 L 728.47,174.55 L 734.75,173.85 L 741.02,173.49 L 747.29,173.28 L 753.56,172.38 L 759.83,171.45 L 766.10,170.62 L 772.37,169.43 L 778.64,169.11 L 784.92,168.88 L 791.19,168.68 L 797.46,167.78 L 803.73,166.50 L 810.00,165.37 L 810.00,280 Z" fill="url(#areaFill)"/>

  <!-- Line -->
  <path d="M 70.00,277.55 L 76.27,276.48 L 82.54,276.35 L 88.81,276.32 L 95.08,276.19 L 101.36,276.12 L 107.63,275.99 L 113.90,275.68 L 120.17,275.03 L 126.44,274.68 L 132.71,273.50 L 138.98,272.68 L 145.25,270.25 L 151.53,269.27 L 157.80,268.68 L 164.07,268.09 L 170.34,267.94 L 176.61,267.59 L 182.88,267.03 L 189.15,266.11 L 195.42,265.79 L 201.69,265.31 L 207.97,264.84 L 214.24,264.68 L 220.51,264.50 L 226.78,263.90 L 233.05,263.53 L 239.32,263.00 L 245.59,262.62 L 251.86,262.39 L 258.14,262.13 L 264.41,261.78 L 270.68,261.38 L 276.95,260.88 L 283.22,260.38 L 289.49,259.91 L 295.76,259.46 L 302.03,259.30 L 308.31,258.68 L 314.58,257.79 L 320.85,256.75 L 327.12,255.44 L 333.39,252.80 L 339.66,251.03 L 345.93,250.09 L 352.20,249.29 L 358.47,247.10 L 364.75,245.24 L 371.02,243.53 L 377.29,241.59 L 383.56,240.05 L 389.83,239.15 L 396.10,237.85 L 402.37,236.53 L 408.64,234.24 L 414.92,232.42 L 421.19,230.21 L 427.46,228.72 L 433.73,227.70 L 440.00,226.90 L 446.27,226.13 L 452.54,224.51 L 458.81,222.79 L 465.08,221.21 L 471.36,220.03 L 477.63,219.45 L 483.90,218.76 L 490.17,217.41 L 496.44,216.31 L 502.71,214.88 L 508.98,213.65 L 515.25,212.43 L 521.53,211.24 L 527.80,210.76 L 534.07,209.87 L 540.34,208.48 L 546.61,207.50 L 552.88,205.70 L 559.15,204.33 L 565.42,203.31 L 571.69,202.31 L 577.97,200.91 L 584.24,199.41 L 590.51,197.83 L 596.78,195.01 L 603.05,194.08 L 609.32,193.52 L 615.59,192.76 L 621.86,191.12 L 628.14,189.81 L 634.41,188.59 L 640.68,187.47 L 646.95,186.30 L 653.22,186.01 L 659.49,185.26 L 665.76,184.41 L 672.03,182.49 L 678.31,181.48 L 684.58,180.33 L 690.85,179.86 L 697.12,179.46 L 703.39,179.15 L 709.66,178.19 L 715.93,176.69 L 722.20,175.43 L 728.47,174.55 L 734.75,173.85 L 741.02,173.49 L 747.29,173.28 L 753.56,172.38 L 759.83,171.45 L 766.10,170.62 L 772.37,169.43 L 778.64,169.11 L 784.92,168.88 L 791.19,168.68 L 797.46,167.78 L 803.73,166.50 L 810.00,165.37" fill="none" stroke="#58a6ff" stroke-width="2.5" stroke-linejoin="round" stroke-linecap="round"/>

  <!-- Data points -->
  <circle cx="70.00" cy="277.55" r="2.5" fill="#58a6ff"/><circle cx="76.27" cy="276.48" r="2.5" fill="#58a6ff"/><circle cx="82.54" cy="276.35" r="2.5" fill="#58a6ff"/><circle cx="88.81" cy="276.32" r="2.5" fill="#58a6ff"/><circle cx="95.08" cy="276.19" r="2.5" fill="#58a6ff"/><circle cx="101.36" cy="276.12" r="2.5" fill="#58a6ff"/><circle cx="107.63" cy="275.99" r="2.5" fill="#58a6ff"/><circle cx="113.90" cy="275.68" r="2.5" fill="#58a6ff"/><circle cx="120.17" cy="275.03" r="2.5" fill="#58a6ff"/><circle cx="126.44" cy="274.68" r="2.5" fill="#58a6ff"/><circle cx="132.71" cy="273.50" r="2.5" fill="#58a6ff"/><circle cx="138.98" cy="272.68" r="2.5" fill="#58a6ff"/><circle cx="145.25" cy="270.25" r="2.5" fill="#58a6ff"/><circle cx="151.53" cy="269.27" r="2.5" fill="#58a6ff"/><circle cx="157.80" cy="268.68" r="2.5" fill="#58a6ff"/><circle cx="164.07" cy="268.09" r="2.5" fill="#58a6ff"/><circle cx="170.34" cy="267.94" r="2.5" fill="#58a6ff"/><circle cx="176.61" cy="267.59" r="2.5" fill="#58a6ff"/><circle cx="182.88" cy="267.03" r="2.5" fill="#58a6ff"/><circle cx="189.15" cy="266.11" r="2.5" fill="#58a6ff"/><circle cx="195.42" cy="265.79" r="2.5" fill="#58a6ff"/><circle cx="201.69" cy="265.31" r="2.5" fill="#58a6ff"/><circle cx="207.97" cy="264.84" r="2.5" fill="#58a6ff"/><circle cx="214.24" cy="264.68" r="2.5" fill="#58a6ff"/><circle cx="220.51" cy="264.50" r="2.5" fill="#58a6ff"/><circle cx="226.78" cy="263.90" r="2.5" fill="#58a6ff"/><circle cx="233.05" cy="263.53" r="2.5" fill="#58a6ff"/><circle cx="239.32" cy="263.00" r="2.5" fill="#58a6ff"/><circle cx="245.59" cy="262.62" r="2.5" fill="#58a6ff"/><circle cx="251.86" cy="262.39" r="2.5" fill="#58a6ff"/><circle cx="258.14" cy="262.13" r="2.5" fill="#58a6ff"/><circle cx="264.41" cy="261.78" r="2.5" fill="#58a6ff"/><circle cx="270.68" cy="261.38" r="2.5" fill="#58a6ff"/><circle cx="276.95" cy="260.88" r="2.5" fill="#58a6ff"/><circle cx="283.22" cy="260.38" r="2.5" fill="#58a6ff"/><circle cx="289.49" cy="259.91" r="2.5" fill="#58a6ff"/><circle cx="295.76" cy="259.46" r="2.5" fill="#58a6ff"/><circle cx="302.03" cy="259.30" r="2.5" fill="#58a6ff"/><circle cx="308.31" cy="258.68" r="2.5" fill="#58a6ff"/><circle cx="314.58" cy="257.79" r="2.5" fill="#58a6ff"/><circle cx="320.85" cy="256.75" r="2.5" fill="#58a6ff"/><circle cx="327.12" cy="255.44" r="2.5" fill="#58a6ff"/><circle cx="333.39" cy="252.80" r="2.5" fill="#58a6ff"/><circle cx="339.66" cy="251.03" r="2.5" fill="#58a6ff"/><circle cx="345.93" cy="250.09" r="2.5" fill="#58a6ff"/><circle cx="352.20" cy="249.29" r="2.5" fill="#58a6ff"/><circle cx="358.47" cy="247.10" r="2.5" fill="#58a6ff"/><circle cx="364.75" cy="245.24" r="2.5" fill="#58a6ff"/><circle cx="371.02" cy="243.53" r="2.5" fill="#58a6ff"/><circle cx="377.29" cy="241.59" r="2.5" fill="#58a6ff"/><circle cx="383.56" cy="240.05" r="2.5" fill="#58a6ff"/><circle cx="389.83" cy="239.15" r="2.5" fill="#58a6ff"/><circle cx="396.10" cy="237.85" r="2.5" fill="#58a6ff"/><circle cx="402.37" cy="236.53" r="2.5" fill="#58a6ff"/><circle cx="408.64" cy="234.24" r="2.5" fill="#58a6ff"/><circle cx="414.92" cy="232.42" r="2.5" fill="#58a6ff"/><circle cx="421.19" cy="230.21" r="2.5" fill="#58a6ff"/><circle cx="427.46" cy="228.72" r="2.5" fill="#58a6ff"/><circle cx="433.73" cy="227.70" r="2.5" fill="#58a6ff"/><circle cx="440.00" cy="226.90" r="2.5" fill="#58a6ff"/><circle cx="446.27" cy="226.13" r="2.5" fill="#58a6ff"/><circle cx="452.54" cy="224.51" r="2.5" fill="#58a6ff"/><circle cx="458.81" cy="222.79" r="2.5" fill="#58a6ff"/><circle cx="465.08" cy="221.21" r="2.5" fill="#58a6ff"/><circle cx="471.36" cy="220.03" r="2.5" fill="#58a6ff"/><circle cx="477.63" cy="219.45" r="2.5" fill="#58a6ff"/><circle cx="483.90" cy="218.76" r="2.5" fill="#58a6ff"/><circle cx="490.17" cy="217.41" r="2.5" fill="#58a6ff"/><circle cx="496.44" cy="216.31" r="2.5" fill="#58a6ff"/><circle cx="502.71" cy="214.88" r="2.5" fill="#58a6ff"/><circle cx="508.98" cy="213.65" r="2.5" fill="#58a6ff"/><circle cx="515.25" cy="212.43" r="2.5" fill="#58a6ff"/><circle cx="521.53" cy="211.24" r="2.5" fill="#58a6ff"/><circle cx="527.80" cy="210.76" r="2.5" fill="#58a6ff"/><circle cx="534.07" cy="209.87" r="2.5" fill="#58a6ff"/><circle cx="540.34" cy="208.48" r="2.5" fill="#58a6ff"/><circle cx="546.61" cy="207.50" r="2.5" fill="#58a6ff"/><circle cx="552.88" cy="205.70" r="2.5" fill="#58a6ff"/><circle cx="559.15" cy="204.33" r="2.5" fill="#58a6ff"/><circle cx="565.42" cy="203.31" r="2.5" fill="#58a6ff"/><circle cx="571.69" cy="202.31" r="2.5" fill="#58a6ff"/><circle cx="577.97" cy="200.91" r="2.5" fill="#58a6ff"/><circle cx="584.24" cy="199.41" r="2.5" fill="#58a6ff"/><circle cx="590.51" cy="197.83" r="2.5" fill="#58a6ff"/><circle cx="596.78" cy="195.01" r="2.5" fill="#58a6ff"/><circle cx="603.05" cy="194.08" r="2.5" fill="#58a6ff"/><circle cx="609.32" cy="193.52" r="2.5" fill="#58a6ff"/><circle cx="615.59" cy="192.76" r="2.5" fill="#58a6ff"/><circle cx="621.86" cy="191.12" r="2.5" fill="#58a6ff"/><circle cx="628.14" cy="189.81" r="2.5" fill="#58a6ff"/><circle cx="634.41" cy="188.59" r="2.5" fill="#58a6ff"/><circle cx="640.68" cy="187.47" r="2.5" fill="#58a6ff"/><circle cx="646.95" cy="186.30" r="2.5" fill="#58a6ff"/><circle cx="653.22" cy="186.01" r="2.5" fill="#58a6ff"/><circle cx="659.49" cy="185.26" r="2.5" fill="#58a6ff"/><circle cx="665.76" cy="184.41" r="2.5" fill="#58a6ff"/><circle cx="672.03" cy="182.49" r="2.5" fill="#58a6ff"/><circle cx="678.31" cy="181.48" r="2.5" fill="#58a6ff"/><circle cx="684.58" cy="180.33" r="2.5" fill="#58a6ff"/><circle cx="690.85" cy="179.86" r="2.5" fill="#58a6ff"/><circle cx="697.12" cy="179.46" r="2.5" fill="#58a6ff"/><circle cx="703.39" cy="179.15" r="2.5" fill="#58a6ff"/><circle cx="709.66" cy="178.19" r="2.5" fill="#58a6ff"/><circle cx="715.93" cy="176.69" r="2.5" fill="#58a6ff"/><circle cx="722.20" cy="175.43" r="2.5" fill="#58a6ff"/><circle cx="728.47" cy="174.55" r="2.5" fill="#58a6ff"/><circle cx="734.75" cy="173.85" r="2.5" fill="#58a6ff"/><circle cx="741.02" cy="173.49" r="2.5" fill="#58a6ff"/><circle cx="747.29" cy="173.28" r="2.5" fill="#58a6ff"/><circle cx="753.56" cy="172.38" r="2.5" fill="#58a6ff"/><circle cx="759.83" cy="171.45" r="2.5" fill="#58a6ff"/><circle cx="766.10" cy="170.62" r="2.5" fill="#58a6ff"/><circle cx="772.37" cy="169.43" r="2.5" fill="#58a6ff"/><circle cx="778.64" cy="169.11" r="2.5" fill="#58a6ff"/><circle cx="784.92" cy="168.88" r="2.5" fill="#58a6ff"/><circle cx="791.19" cy="168.68" r="2.5" fill="#58a6ff"/><circle cx="797.46" cy="167.78" r="2.5" fill="#58a6ff"/><circle cx="803.73" cy="166.50" r="2.5" fill="#58a6ff"/><circle cx="810.00" cy="165.37" r="4" fill="#F2C811"/>

  <!-- Last-value callout -->
  <rect x="720.0" y="137.4" width="82" height="24" rx="4" fill="#0d1a2a" stroke="#F2C811" stroke-width="1"/>
  <text x="761.0" y="153.4" font-family="'Segoe UI', Arial, sans-serif" font-size="12" fill="#F2C811" text-anchor="middle" font-weight="bold">28,375 total</text>

  <!-- X-axis labels -->
  <text x="70.0" y="298" font-family="'Segoe UI', Arial, sans-serif" font-size="10" fill="#8b949e" text-anchor="middle">Mar 26</text><text x="251.9" y="298" font-family="'Segoe UI', Arial, sans-serif" font-size="10" fill="#8b949e" text-anchor="middle">Apr 24</text><text x="440.0" y="298" font-family="'Segoe UI', Arial, sans-serif" font-size="10" fill="#8b949e" text-anchor="middle">May 24</text><text x="628.1" y="298" font-family="'Segoe UI', Arial, sans-serif" font-size="10" fill="#8b949e" text-anchor="middle">Jun 23</text><text x="810.0" y="298" font-family="'Segoe UI', Arial, sans-serif" font-size="10" fill="#8b949e" text-anchor="middle">Jul 22</text>

  <!-- Footer: date range -->
  <text x="70" y="328" font-family="'Segoe UI', Arial, sans-serif" font-size="10" fill="#8b949e">Mar 26, 2026 → Jul 22, 2026</text>
  <text x="810" y="328" font-family="'Segoe UI', Arial, sans-serif" font-size="10" fill="#8b949e" text-anchor="end">119 days of data</text>
</svg>
