<svg xmlns="http://www.w3.org/2000/svg" width="850" height="340" viewBox="0 0 850 340">
  <defs>
    <linearGradient id="areaFill" x1="0" y1="0" x2="0" y2="1">
      <stop offset="0%" stop-color="#58a6ff" stop-opacity="0.45"/>
      <stop offset="100%" stop-color="#58a6ff" stop-opacity="0"/>
    </linearGradient>
  </defs>

  <!-- Background -->
  <rect width="100%" height="100%" fill="#0d1117" rx="8"/>

  <!-- Title -->
  <text x="425" y="33" font-family="'Segoe UI', Arial, sans-serif" font-size="17" fill="#F2C811" text-anchor="middle" font-weight="bold">pbi-cli Downloads Over Time</text>
  <text x="425" y="52" font-family="'Segoe UI', Arial, sans-serif" font-size="11" fill="#8b949e" text-anchor="middle">Cumulative installs from PyPI • mirrors excluded • source: pypistats.org</text>

  <!-- Gridlines & y-labels -->
  <line x1="70" y1="280.0" x2="810" y2="280.0" stroke="#21262d" stroke-width="1" stroke-dasharray="2,3"/><line x1="70" y1="239.6" x2="810" y2="239.6" stroke="#21262d" stroke-width="1" stroke-dasharray="2,3"/><line x1="70" y1="199.2" x2="810" y2="199.2" stroke="#21262d" stroke-width="1" stroke-dasharray="2,3"/><line x1="70" y1="158.8" x2="810" y2="158.8" stroke="#21262d" stroke-width="1" stroke-dasharray="2,3"/><line x1="70" y1="118.4" x2="810" y2="118.4" stroke="#21262d" stroke-width="1" stroke-dasharray="2,3"/><line x1="70" y1="78.0" x2="810" y2="78.0" stroke="#21262d" stroke-width="1" stroke-dasharray="2,3"/>
  <text x="62" y="284.0" font-family="'Segoe UI', Arial, sans-serif" font-size="10" fill="#8b949e" text-anchor="end">0</text><text x="62" y="243.6" font-family="'Segoe UI', Arial, sans-serif" font-size="10" fill="#8b949e" text-anchor="end">10,000</text><text x="62" y="203.2" font-family="'Segoe UI', Arial, sans-serif" font-size="10" fill="#8b949e" text-anchor="end">20,000</text><text x="62" y="162.8" font-family="'Segoe UI', Arial, sans-serif" font-size="10" fill="#8b949e" text-anchor="end">30,000</text><text x="62" y="122.4" font-family="'Segoe UI', Arial, sans-serif" font-size="10" fill="#8b949e" text-anchor="end">40,000</text><text x="62" y="82.0" font-family="'Segoe UI', Arial, sans-serif" font-size="10" fill="#8b949e" text-anchor="end">50,000</text>

  <!-- Area fill -->
  <path d="M 70.00,280 L 70.00,277.55 L 74.65,276.48 L 79.31,276.35 L 83.96,276.32 L 88.62,276.19 L 93.27,276.12 L 97.92,275.99 L 102.58,275.68 L 107.23,275.03 L 111.89,274.68 L 116.54,273.50 L 121.19,272.68 L 125.85,270.25 L 130.50,269.27 L 135.16,268.68 L 139.81,268.09 L 144.47,267.94 L 149.12,267.59 L 153.77,267.03 L 158.43,266.11 L 163.08,265.79 L 167.74,265.31 L 172.39,264.84 L 177.04,264.68 L 181.70,264.50 L 186.35,263.90 L 191.01,263.53 L 195.66,263.00 L 200.31,262.62 L 204.97,262.39 L 209.62,262.13 L 214.28,261.78 L 218.93,261.38 L 223.58,260.88 L 228.24,260.38 L 232.89,259.91 L 237.55,259.46 L 242.20,259.30 L 246.86,258.68 L 251.51,257.79 L 256.16,256.75 L 260.82,255.44 L 265.47,252.80 L 270.13,251.03 L 274.78,250.09 L 279.43,249.29 L 284.09,247.10 L 288.74,245.24 L 293.40,243.53 L 298.05,241.59 L 302.70,240.05 L 307.36,239.15 L 312.01,237.85 L 316.67,236.53 L 321.32,234.24 L 325.97,232.42 L 330.63,230.21 L 335.28,228.72 L 339.94,227.70 L 344.59,226.90 L 349.25,226.13 L 353.90,224.51 L 358.55,222.79 L 363.21,221.21 L 367.86,220.03 L 372.52,219.45 L 377.17,218.76 L 381.82,217.41 L 386.48,216.31 L 391.13,214.88 L 395.79,213.65 L 400.44,212.43 L 405.09,211.24 L 409.75,210.76 L 414.40,209.87 L 419.06,208.48 L 423.71,207.50 L 428.36,205.70 L 433.02,204.33 L 437.67,203.31 L 442.33,202.31 L 446.98,200.91 L 451.64,199.41 L 456.29,197.83 L 460.94,195.01 L 465.60,194.08 L 470.25,193.52 L 474.91,192.76 L 479.56,191.12 L 484.21,189.81 L 488.87,188.59 L 493.52,187.47 L 498.18,186.30 L 502.83,186.01 L 507.48,185.26 L 512.14,184.41 L 516.79,182.49 L 521.45,181.48 L 526.10,180.33 L 530.75,179.86 L 535.41,179.46 L 540.06,179.15 L 544.72,178.19 L 549.37,176.69 L 554.03,175.43 L 558.68,174.55 L 563.33,173.85 L 567.99,173.49 L 572.64,173.28 L 577.30,172.38 L 581.95,171.45 L 586.60,170.62 L 591.26,169.43 L 595.91,169.11 L 600.57,168.88 L 605.22,168.68 L 609.87,167.78 L 614.53,166.50 L 619.18,165.37 L 623.84,164.35 L 628.49,163.70 L 633.14,163.37 L 637.80,162.86 L 642.45,162.25 L 647.11,161.59 L 651.76,160.95 L 656.42,160.09 L 661.07,159.87 L 665.72,159.50 L 670.38,159.40 L 675.03,158.78 L 679.69,158.17 L 684.34,157.23 L 688.99,156.41 L 693.65,156.11 L 698.30,155.82 L 702.96,155.62 L 707.61,155.04 L 712.26,154.38 L 716.92,153.69 L 721.57,153.03 L 726.23,152.63 L 730.88,152.33 L 735.53,152.26 L 740.19,151.75 L 744.84,151.40 L 749.50,150.70 L 754.15,149.96 L 758.81,149.52 L 763.46,149.22 L 768.11,148.75 L 772.77,148.27 L 777.42,148.11 L 782.08,147.98 L 786.73,147.90 L 791.38,147.81 L 796.04,147.77 L 800.69,147.73 L 805.35,147.66 L 810.00,147.48 L 810.00,280 Z" fill="url(#areaFill)"/>

  <!-- Line -->
  <path d="M 70.00,277.55 L 74.65,276.48 L 79.31,276.35 L 83.96,276.32 L 88.62,276.19 L 93.27,276.12 L 97.92,275.99 L 102.58,275.68 L 107.23,275.03 L 111.89,274.68 L 116.54,273.50 L 121.19,272.68 L 125.85,270.25 L 130.50,269.27 L 135.16,268.68 L 139.81,268.09 L 144.47,267.94 L 149.12,267.59 L 153.77,267.03 L 158.43,266.11 L 163.08,265.79 L 167.74,265.31 L 172.39,264.84 L 177.04,264.68 L 181.70,264.50 L 186.35,263.90 L 191.01,263.53 L 195.66,263.00 L 200.31,262.62 L 204.97,262.39 L 209.62,262.13 L 214.28,261.78 L 218.93,261.38 L 223.58,260.88 L 228.24,260.38 L 232.89,259.91 L 237.55,259.46 L 242.20,259.30 L 246.86,258.68 L 251.51,257.79 L 256.16,256.75 L 260.82,255.44 L 265.47,252.80 L 270.13,251.03 L 274.78,250.09 L 279.43,249.29 L 284.09,247.10 L 288.74,245.24 L 293.40,243.53 L 298.05,241.59 L 302.70,240.05 L 307.36,239.15 L 312.01,237.85 L 316.67,236.53 L 321.32,234.24 L 325.97,232.42 L 330.63,230.21 L 335.28,228.72 L 339.94,227.70 L 344.59,226.90 L 349.25,226.13 L 353.90,224.51 L 358.55,222.79 L 363.21,221.21 L 367.86,220.03 L 372.52,219.45 L 377.17,218.76 L 381.82,217.41 L 386.48,216.31 L 391.13,214.88 L 395.79,213.65 L 400.44,212.43 L 405.09,211.24 L 409.75,210.76 L 414.40,209.87 L 419.06,208.48 L 423.71,207.50 L 428.36,205.70 L 433.02,204.33 L 437.67,203.31 L 442.33,202.31 L 446.98,200.91 L 451.64,199.41 L 456.29,197.83 L 460.94,195.01 L 465.60,194.08 L 470.25,193.52 L 474.91,192.76 L 479.56,191.12 L 484.21,189.81 L 488.87,188.59 L 493.52,187.47 L 498.18,186.30 L 502.83,186.01 L 507.48,185.26 L 512.14,184.41 L 516.79,182.49 L 521.45,181.48 L 526.10,180.33 L 530.75,179.86 L 535.41,179.46 L 540.06,179.15 L 544.72,178.19 L 549.37,176.69 L 554.03,175.43 L 558.68,174.55 L 563.33,173.85 L 567.99,173.49 L 572.64,173.28 L 577.30,172.38 L 581.95,171.45 L 586.60,170.62 L 591.26,169.43 L 595.91,169.11 L 600.57,168.88 L 605.22,168.68 L 609.87,167.78 L 614.53,166.50 L 619.18,165.37 L 623.84,164.35 L 628.49,163.70 L 633.14,163.37 L 637.80,162.86 L 642.45,162.25 L 647.11,161.59 L 651.76,160.95 L 656.42,160.09 L 661.07,159.87 L 665.72,159.50 L 670.38,159.40 L 675.03,158.78 L 679.69,158.17 L 684.34,157.23 L 688.99,156.41 L 693.65,156.11 L 698.30,155.82 L 702.96,155.62 L 707.61,155.04 L 712.26,154.38 L 716.92,153.69 L 721.57,153.03 L 726.23,152.63 L 730.88,152.33 L 735.53,152.26 L 740.19,151.75 L 744.84,151.40 L 749.50,150.70 L 754.15,149.96 L 758.81,149.52 L 763.46,149.22 L 768.11,148.75 L 772.77,148.27 L 777.42,148.11 L 782.08,147.98 L 786.73,147.90 L 791.38,147.81 L 796.04,147.77 L 800.69,147.73 L 805.35,147.66 L 810.00,147.48" fill="none" stroke="#58a6ff" stroke-width="2.5" stroke-linejoin="round" stroke-linecap="round"/>

  <!-- Data points -->
  <circle cx="70.00" cy="277.55" r="2.5" fill="#58a6ff"/><circle cx="74.65" cy="276.48" r="2.5" fill="#58a6ff"/><circle cx="79.31" cy="276.35" r="2.5" fill="#58a6ff"/><circle cx="83.96" cy="276.32" r="2.5" fill="#58a6ff"/><circle cx="88.62" cy="276.19" r="2.5" fill="#58a6ff"/><circle cx="93.27" cy="276.12" r="2.5" fill="#58a6ff"/><circle cx="97.92" cy="275.99" r="2.5" fill="#58a6ff"/><circle cx="102.58" cy="275.68" r="2.5" fill="#58a6ff"/><circle cx="107.23" cy="275.03" r="2.5" fill="#58a6ff"/><circle cx="111.89" cy="274.68" r="2.5" fill="#58a6ff"/><circle cx="116.54" cy="273.50" r="2.5" fill="#58a6ff"/><circle cx="121.19" cy="272.68" r="2.5" fill="#58a6ff"/><circle cx="125.85" cy="270.25" r="2.5" fill="#58a6ff"/><circle cx="130.50" cy="269.27" r="2.5" fill="#58a6ff"/><circle cx="135.16" cy="268.68" r="2.5" fill="#58a6ff"/><circle cx="139.81" cy="268.09" r="2.5" fill="#58a6ff"/><circle cx="144.47" cy="267.94" r="2.5" fill="#58a6ff"/><circle cx="149.12" cy="267.59" r="2.5" fill="#58a6ff"/><circle cx="153.77" cy="267.03" r="2.5" fill="#58a6ff"/><circle cx="158.43" cy="266.11" r="2.5" fill="#58a6ff"/><circle cx="163.08" cy="265.79" r="2.5" fill="#58a6ff"/><circle cx="167.74" cy="265.31" r="2.5" fill="#58a6ff"/><circle cx="172.39" cy="264.84" r="2.5" fill="#58a6ff"/><circle cx="177.04" cy="264.68" r="2.5" fill="#58a6ff"/><circle cx="181.70" cy="264.50" r="2.5" fill="#58a6ff"/><circle cx="186.35" cy="263.90" r="2.5" fill="#58a6ff"/><circle cx="191.01" cy="263.53" r="2.5" fill="#58a6ff"/><circle cx="195.66" cy="263.00" r="2.5" fill="#58a6ff"/><circle cx="200.31" cy="262.62" r="2.5" fill="#58a6ff"/><circle cx="204.97" cy="262.39" r="2.5" fill="#58a6ff"/><circle cx="209.62" cy="262.13" r="2.5" fill="#58a6ff"/><circle cx="214.28" cy="261.78" r="2.5" fill="#58a6ff"/><circle cx="218.93" cy="261.38" r="2.5" fill="#58a6ff"/><circle cx="223.58" cy="260.88" r="2.5" fill="#58a6ff"/><circle cx="228.24" cy="260.38" r="2.5" fill="#58a6ff"/><circle cx="232.89" cy="259.91" r="2.5" fill="#58a6ff"/><circle cx="237.55" cy="259.46" r="2.5" fill="#58a6ff"/><circle cx="242.20" cy="259.30" r="2.5" fill="#58a6ff"/><circle cx="246.86" cy="258.68" r="2.5" fill="#58a6ff"/><circle cx="251.51" cy="257.79" r="2.5" fill="#58a6ff"/><circle cx="256.16" cy="256.75" r="2.5" fill="#58a6ff"/><circle cx="260.82" cy="255.44" r="2.5" fill="#58a6ff"/><circle cx="265.47" cy="252.80" r="2.5" fill="#58a6ff"/><circle cx="270.13" cy="251.03" r="2.5" fill="#58a6ff"/><circle cx="274.78" cy="250.09" r="2.5" fill="#58a6ff"/><circle cx="279.43" cy="249.29" r="2.5" fill="#58a6ff"/><circle cx="284.09" cy="247.10" r="2.5" fill="#58a6ff"/><circle cx="288.74" cy="245.24" r="2.5" fill="#58a6ff"/><circle cx="293.40" cy="243.53" r="2.5" fill="#58a6ff"/><circle cx="298.05" cy="241.59" r="2.5" fill="#58a6ff"/><circle cx="302.70" cy="240.05" r="2.5" fill="#58a6ff"/><circle cx="307.36" cy="239.15" r="2.5" fill="#58a6ff"/><circle cx="312.01" cy="237.85" r="2.5" fill="#58a6ff"/><circle cx="316.67" cy="236.53" r="2.5" fill="#58a6ff"/><circle cx="321.32" cy="234.24" r="2.5" fill="#58a6ff"/><circle cx="325.97" cy="232.42" r="2.5" fill="#58a6ff"/><circle cx="330.63" cy="230.21" r="2.5" fill="#58a6ff"/><circle cx="335.28" cy="228.72" r="2.5" fill="#58a6ff"/><circle cx="339.94" cy="227.70" r="2.5" fill="#58a6ff"/><circle cx="344.59" cy="226.90" r="2.5" fill="#58a6ff"/><circle cx="349.25" cy="226.13" r="2.5" fill="#58a6ff"/><circle cx="353.90" cy="224.51" r="2.5" fill="#58a6ff"/><circle cx="358.55" cy="222.79" r="2.5" fill="#58a6ff"/><circle cx="363.21" cy="221.21" r="2.5" fill="#58a6ff"/><circle cx="367.86" cy="220.03" r="2.5" fill="#58a6ff"/><circle cx="372.52" cy="219.45" r="2.5" fill="#58a6ff"/><circle cx="377.17" cy="218.76" r="2.5" fill="#58a6ff"/><circle cx="381.82" cy="217.41" r="2.5" fill="#58a6ff"/><circle cx="386.48" cy="216.31" r="2.5" fill="#58a6ff"/><circle cx="391.13" cy="214.88" r="2.5" fill="#58a6ff"/><circle cx="395.79" cy="213.65" r="2.5" fill="#58a6ff"/><circle cx="400.44" cy="212.43" r="2.5" fill="#58a6ff"/><circle cx="405.09" cy="211.24" r="2.5" fill="#58a6ff"/><circle cx="409.75" cy="210.76" r="2.5" fill="#58a6ff"/><circle cx="414.40" cy="209.87" r="2.5" fill="#58a6ff"/><circle cx="419.06" cy="208.48" r="2.5" fill="#58a6ff"/><circle cx="423.71" cy="207.50" r="2.5" fill="#58a6ff"/><circle cx="428.36" cy="205.70" r="2.5" fill="#58a6ff"/><circle cx="433.02" cy="204.33" r="2.5" fill="#58a6ff"/><circle cx="437.67" cy="203.31" r="2.5" fill="#58a6ff"/><circle cx="442.33" cy="202.31" r="2.5" fill="#58a6ff"/><circle cx="446.98" cy="200.91" r="2.5" fill="#58a6ff"/><circle cx="451.64" cy="199.41" r="2.5" fill="#58a6ff"/><circle cx="456.29" cy="197.83" r="2.5" fill="#58a6ff"/><circle cx="460.94" cy="195.01" r="2.5" fill="#58a6ff"/><circle cx="465.60" cy="194.08" r="2.5" fill="#58a6ff"/><circle cx="470.25" cy="193.52" r="2.5" fill="#58a6ff"/><circle cx="474.91" cy="192.76" r="2.5" fill="#58a6ff"/><circle cx="479.56" cy="191.12" r="2.5" fill="#58a6ff"/><circle cx="484.21" cy="189.81" r="2.5" fill="#58a6ff"/><circle cx="488.87" cy="188.59" r="2.5" fill="#58a6ff"/><circle cx="493.52" cy="187.47" r="2.5" fill="#58a6ff"/><circle cx="498.18" cy="186.30" r="2.5" fill="#58a6ff"/><circle cx="502.83" cy="186.01" r="2.5" fill="#58a6ff"/><circle cx="507.48" cy="185.26" r="2.5" fill="#58a6ff"/><circle cx="512.14" cy="184.41" r="2.5" fill="#58a6ff"/><circle cx="516.79" cy="182.49" r="2.5" fill="#58a6ff"/><circle cx="521.45" cy="181.48" r="2.5" fill="#58a6ff"/><circle cx="526.10" cy="180.33" r="2.5" fill="#58a6ff"/><circle cx="530.75" cy="179.86" r="2.5" fill="#58a6ff"/><circle cx="535.41" cy="179.46" r="2.5" fill="#58a6ff"/><circle cx="540.06" cy="179.15" r="2.5" fill="#58a6ff"/><circle cx="544.72" cy="178.19" r="2.5" fill="#58a6ff"/><circle cx="549.37" cy="176.69" r="2.5" fill="#58a6ff"/><circle cx="554.03" cy="175.43" r="2.5" fill="#58a6ff"/><circle cx="558.68" cy="174.55" r="2.5" fill="#58a6ff"/><circle cx="563.33" cy="173.85" r="2.5" fill="#58a6ff"/><circle cx="567.99" cy="173.49" r="2.5" fill="#58a6ff"/><circle cx="572.64" cy="173.28" r="2.5" fill="#58a6ff"/><circle cx="577.30" cy="172.38" r="2.5" fill="#58a6ff"/><circle cx="581.95" cy="171.45" r="2.5" fill="#58a6ff"/><circle cx="586.60" cy="170.62" r="2.5" fill="#58a6ff"/><circle cx="591.26" cy="169.43" r="2.5" fill="#58a6ff"/><circle cx="595.91" cy="169.11" r="2.5" fill="#58a6ff"/><circle cx="600.57" cy="168.88" r="2.5" fill="#58a6ff"/><circle cx="605.22" cy="168.68" r="2.5" fill="#58a6ff"/><circle cx="609.87" cy="167.78" r="2.5" fill="#58a6ff"/><circle cx="614.53" cy="166.50" r="2.5" fill="#58a6ff"/><circle cx="619.18" cy="165.37" r="2.5" fill="#58a6ff"/><circle cx="623.84" cy="164.35" r="2.5" fill="#58a6ff"/><circle cx="628.49" cy="163.70" r="2.5" fill="#58a6ff"/><circle cx="633.14" cy="163.37" r="2.5" fill="#58a6ff"/><circle cx="637.80" cy="162.86" r="2.5" fill="#58a6ff"/><circle cx="642.45" cy="162.25" r="2.5" fill="#58a6ff"/><circle cx="647.11" cy="161.59" r="2.5" fill="#58a6ff"/><circle cx="651.76" cy="160.95" r="2.5" fill="#58a6ff"/><circle cx="656.42" cy="160.09" r="2.5" fill="#58a6ff"/><circle cx="661.07" cy="159.87" r="2.5" fill="#58a6ff"/><circle cx="665.72" cy="159.50" r="2.5" fill="#58a6ff"/><circle cx="670.38" cy="159.40" r="2.5" fill="#58a6ff"/><circle cx="675.03" cy="158.78" r="2.5" fill="#58a6ff"/><circle cx="679.69" cy="158.17" r="2.5" fill="#58a6ff"/><circle cx="684.34" cy="157.23" r="2.5" fill="#58a6ff"/><circle cx="688.99" cy="156.41" r="2.5" fill="#58a6ff"/><circle cx="693.65" cy="156.11" r="2.5" fill="#58a6ff"/><circle cx="698.30" cy="155.82" r="2.5" fill="#58a6ff"/><circle cx="702.96" cy="155.62" r="2.5" fill="#58a6ff"/><circle cx="707.61" cy="155.04" r="2.5" fill="#58a6ff"/><circle cx="712.26" cy="154.38" r="2.5" fill="#58a6ff"/><circle cx="716.92" cy="153.69" r="2.5" fill="#58a6ff"/><circle cx="721.57" cy="153.03" r="2.5" fill="#58a6ff"/><circle cx="726.23" cy="152.63" r="2.5" fill="#58a6ff"/><circle cx="730.88" cy="152.33" r="2.5" fill="#58a6ff"/><circle cx="735.53" cy="152.26" r="2.5" fill="#58a6ff"/><circle cx="740.19" cy="151.75" r="2.5" fill="#58a6ff"/><circle cx="744.84" cy="151.40" r="2.5" fill="#58a6ff"/><circle cx="749.50" cy="150.70" r="2.5" fill="#58a6ff"/><circle cx="754.15" cy="149.96" r="2.5" fill="#58a6ff"/><circle cx="758.81" cy="149.52" r="2.5" fill="#58a6ff"/><circle cx="763.46" cy="149.22" r="2.5" fill="#58a6ff"/><circle cx="768.11" cy="148.75" r="2.5" fill="#58a6ff"/><circle cx="772.77" cy="148.27" r="2.5" fill="#58a6ff"/><circle cx="777.42" cy="148.11" r="2.5" fill="#58a6ff"/><circle cx="782.08" cy="147.98" r="2.5" fill="#58a6ff"/><circle cx="786.73" cy="147.90" r="2.5" fill="#58a6ff"/><circle cx="791.38" cy="147.81" r="2.5" fill="#58a6ff"/><circle cx="796.04" cy="147.77" r="2.5" fill="#58a6ff"/><circle cx="800.69" cy="147.73" r="2.5" fill="#58a6ff"/><circle cx="805.35" cy="147.66" r="2.5" fill="#58a6ff"/><circle cx="810.00" cy="147.48" r="4" fill="#F2C811"/>

  <!-- Last-value callout -->
  <rect x="720.0" y="119.5" width="82" height="24" rx="4" fill="#0d1a2a" stroke="#F2C811" stroke-width="1"/>
  <text x="761.0" y="135.5" font-family="'Segoe UI', Arial, sans-serif" font-size="12" fill="#F2C811" text-anchor="middle" font-weight="bold">32,802 total</text>

  <!-- X-axis labels -->
  <text x="70.0" y="298" font-family="'Segoe UI', Arial, sans-serif" font-size="10" fill="#8b949e" text-anchor="middle">Mar 26</text><text x="256.2" y="298" font-family="'Segoe UI', Arial, sans-serif" font-size="10" fill="#8b949e" text-anchor="middle">May 05</text><text x="442.3" y="298" font-family="'Segoe UI', Arial, sans-serif" font-size="10" fill="#8b949e" text-anchor="middle">Jun 14</text><text x="628.5" y="298" font-family="'Segoe UI', Arial, sans-serif" font-size="10" fill="#8b949e" text-anchor="middle">Jul 24</text><text x="810.0" y="298" font-family="'Segoe UI', Arial, sans-serif" font-size="10" fill="#8b949e" text-anchor="middle">Sep 01</text>

  <!-- Footer: date range -->
  <text x="70" y="328" font-family="'Segoe UI', Arial, sans-serif" font-size="10" fill="#8b949e">Mar 26, 2026 → Sep 01, 2026</text>
  <text x="810" y="328" font-family="'Segoe UI', Arial, sans-serif" font-size="10" fill="#8b949e" text-anchor="end">160 days of data</text>
</svg>
