<svg xmlns="http://www.w3.org/2000/svg" width="850" height="340" viewBox="0 0 850 340">
  <defs>
    <linearGradient id="areaFill" x1="0" y1="0" x2="0" y2="1">
      <stop offset="0%" stop-color="#58a6ff" stop-opacity="0.45"/>
      <stop offset="100%" stop-color="#58a6ff" stop-opacity="0"/>
    </linearGradient>
  </defs>

  <!-- Background -->
  <rect width="100%" height="100%" fill="#0d1117" rx="8"/>

  <!-- Title -->
  <text x="425" y="33" font-family="'Segoe UI', Arial, sans-serif" font-size="17" fill="#F2C811" text-anchor="middle" font-weight="bold">pbi-cli Downloads Over Time</text>
  <text x="425" y="52" font-family="'Segoe UI', Arial, sans-serif" font-size="11" fill="#8b949e" text-anchor="middle">Cumulative installs from PyPI • mirrors excluded • source: pypistats.org</text>

  <!-- Gridlines & y-labels -->
  <line x1="70" y1="280.0" x2="810" y2="280.0" stroke="#21262d" stroke-width="1" stroke-dasharray="2,3"/><line x1="70" y1="239.6" x2="810" y2="239.6" stroke="#21262d" stroke-width="1" stroke-dasharray="2,3"/><line x1="70" y1="199.2" x2="810" y2="199.2" stroke="#21262d" stroke-width="1" stroke-dasharray="2,3"/><line x1="70" y1="158.8" x2="810" y2="158.8" stroke="#21262d" stroke-width="1" stroke-dasharray="2,3"/><line x1="70" y1="118.4" x2="810" y2="118.4" stroke="#21262d" stroke-width="1" stroke-dasharray="2,3"/><line x1="70" y1="78.0" x2="810" y2="78.0" stroke="#21262d" stroke-width="1" stroke-dasharray="2,3"/>
  <text x="62" y="284.0" font-family="'Segoe UI', Arial, sans-serif" font-size="10" fill="#8b949e" text-anchor="end">0</text><text x="62" y="243.6" font-family="'Segoe UI', Arial, sans-serif" font-size="10" fill="#8b949e" text-anchor="end">10,000</text><text x="62" y="203.2" font-family="'Segoe UI', Arial, sans-serif" font-size="10" fill="#8b949e" text-anchor="end">20,000</text><text x="62" y="162.8" font-family="'Segoe UI', Arial, sans-serif" font-size="10" fill="#8b949e" text-anchor="end">30,000</text><text x="62" y="122.4" font-family="'Segoe UI', Arial, sans-serif" font-size="10" fill="#8b949e" text-anchor="end">40,000</text><text x="62" y="82.0" font-family="'Segoe UI', Arial, sans-serif" font-size="10" fill="#8b949e" text-anchor="end">50,000</text>

  <!-- Area fill -->
  <path d="M 70.00,280 L 70.00,277.55 L 74.33,276.48 L 78.65,276.35 L 82.98,276.32 L 87.31,276.19 L 91.64,276.12 L 95.96,275.99 L 100.29,275.68 L 104.62,275.03 L 108.95,274.68 L 113.27,273.50 L 117.60,272.68 L 121.93,270.25 L 126.26,269.27 L 130.58,268.68 L 134.91,268.09 L 139.24,267.94 L 143.57,267.59 L 147.89,267.03 L 152.22,266.11 L 156.55,265.79 L 160.88,265.31 L 165.20,264.84 L 169.53,264.68 L 173.86,264.50 L 178.19,263.90 L 182.51,263.53 L 186.84,263.00 L 191.17,262.62 L 195.50,262.39 L 199.82,262.13 L 204.15,261.78 L 208.48,261.38 L 212.81,260.88 L 217.13,260.38 L 221.46,259.91 L 225.79,259.46 L 230.12,259.30 L 234.44,258.68 L 238.77,257.79 L 243.10,256.75 L 247.43,255.44 L 251.75,252.80 L 256.08,251.03 L 260.41,250.09 L 264.74,249.29 L 269.06,247.10 L 273.39,245.24 L 277.72,243.53 L 282.05,241.59 L 286.37,240.05 L 290.70,239.15 L 295.03,237.85 L 299.36,236.53 L 303.68,234.24 L 308.01,232.42 L 312.34,230.21 L 316.67,228.72 L 320.99,227.70 L 325.32,226.90 L 329.65,226.13 L 333.98,224.51 L 338.30,222.79 L 342.63,221.21 L 346.96,220.03 L 351.29,219.45 L 355.61,218.76 L 359.94,217.41 L 364.27,216.31 L 368.60,214.88 L 372.92,213.65 L 377.25,212.43 L 381.58,211.24 L 385.91,210.76 L 390.23,209.87 L 394.56,208.48 L 398.89,207.50 L 403.22,205.70 L 407.54,204.33 L 411.87,203.31 L 416.20,202.31 L 420.53,200.91 L 424.85,199.41 L 429.18,197.83 L 433.51,195.01 L 437.84,194.08 L 442.16,193.52 L 446.49,192.76 L 450.82,191.12 L 455.15,189.81 L 459.47,188.59 L 463.80,187.47 L 468.13,186.30 L 472.46,186.01 L 476.78,185.26 L 481.11,184.41 L 485.44,182.49 L 489.77,181.48 L 494.09,180.33 L 498.42,179.86 L 502.75,179.46 L 507.08,179.15 L 511.40,178.19 L 515.73,176.69 L 520.06,175.43 L 524.39,174.55 L 528.71,173.85 L 533.04,173.49 L 537.37,173.28 L 541.70,172.38 L 546.02,171.45 L 550.35,170.62 L 554.68,169.43 L 559.01,169.11 L 563.33,168.88 L 567.66,168.68 L 571.99,167.78 L 576.32,166.50 L 580.64,165.37 L 584.97,164.35 L 589.30,163.70 L 593.63,163.37 L 597.95,162.86 L 602.28,162.25 L 606.61,161.59 L 610.94,160.95 L 615.26,160.09 L 619.59,159.87 L 623.92,159.50 L 628.25,159.40 L 632.57,158.78 L 636.90,158.17 L 641.23,157.23 L 645.56,156.41 L 649.88,156.11 L 654.21,155.82 L 658.54,155.62 L 662.87,155.04 L 667.19,154.38 L 671.52,153.69 L 675.85,153.03 L 680.18,152.63 L 684.50,152.33 L 688.83,152.26 L 693.16,151.75 L 697.49,151.40 L 701.81,150.70 L 706.14,149.96 L 710.47,149.52 L 714.80,149.22 L 719.12,148.75 L 723.45,148.27 L 727.78,148.11 L 732.11,147.98 L 736.43,147.90 L 740.76,147.81 L 745.09,147.77 L 749.42,147.73 L 753.74,147.66 L 758.07,147.48 L 762.40,147.39 L 766.73,147.23 L 771.05,147.13 L 775.38,147.02 L 779.71,146.97 L 784.04,146.88 L 788.36,146.71 L 792.69,146.55 L 797.02,146.46 L 801.35,146.32 L 805.67,146.22 L 810.00,146.13 L 810.00,280 Z" fill="url(#areaFill)"/>

  <!-- Line -->
  <path d="M 70.00,277.55 L 74.33,276.48 L 78.65,276.35 L 82.98,276.32 L 87.31,276.19 L 91.64,276.12 L 95.96,275.99 L 100.29,275.68 L 104.62,275.03 L 108.95,274.68 L 113.27,273.50 L 117.60,272.68 L 121.93,270.25 L 126.26,269.27 L 130.58,268.68 L 134.91,268.09 L 139.24,267.94 L 143.57,267.59 L 147.89,267.03 L 152.22,266.11 L 156.55,265.79 L 160.88,265.31 L 165.20,264.84 L 169.53,264.68 L 173.86,264.50 L 178.19,263.90 L 182.51,263.53 L 186.84,263.00 L 191.17,262.62 L 195.50,262.39 L 199.82,262.13 L 204.15,261.78 L 208.48,261.38 L 212.81,260.88 L 217.13,260.38 L 221.46,259.91 L 225.79,259.46 L 230.12,259.30 L 234.44,258.68 L 238.77,257.79 L 243.10,256.75 L 247.43,255.44 L 251.75,252.80 L 256.08,251.03 L 260.41,250.09 L 264.74,249.29 L 269.06,247.10 L 273.39,245.24 L 277.72,243.53 L 282.05,241.59 L 286.37,240.05 L 290.70,239.15 L 295.03,237.85 L 299.36,236.53 L 303.68,234.24 L 308.01,232.42 L 312.34,230.21 L 316.67,228.72 L 320.99,227.70 L 325.32,226.90 L 329.65,226.13 L 333.98,224.51 L 338.30,222.79 L 342.63,221.21 L 346.96,220.03 L 351.29,219.45 L 355.61,218.76 L 359.94,217.41 L 364.27,216.31 L 368.60,214.88 L 372.92,213.65 L 377.25,212.43 L 381.58,211.24 L 385.91,210.76 L 390.23,209.87 L 394.56,208.48 L 398.89,207.50 L 403.22,205.70 L 407.54,204.33 L 411.87,203.31 L 416.20,202.31 L 420.53,200.91 L 424.85,199.41 L 429.18,197.83 L 433.51,195.01 L 437.84,194.08 L 442.16,193.52 L 446.49,192.76 L 450.82,191.12 L 455.15,189.81 L 459.47,188.59 L 463.80,187.47 L 468.13,186.30 L 472.46,186.01 L 476.78,185.26 L 481.11,184.41 L 485.44,182.49 L 489.77,181.48 L 494.09,180.33 L 498.42,179.86 L 502.75,179.46 L 507.08,179.15 L 511.40,178.19 L 515.73,176.69 L 520.06,175.43 L 524.39,174.55 L 528.71,173.85 L 533.04,173.49 L 537.37,173.28 L 541.70,172.38 L 546.02,171.45 L 550.35,170.62 L 554.68,169.43 L 559.01,169.11 L 563.33,168.88 L 567.66,168.68 L 571.99,167.78 L 576.32,166.50 L 580.64,165.37 L 584.97,164.35 L 589.30,163.70 L 593.63,163.37 L 597.95,162.86 L 602.28,162.25 L 606.61,161.59 L 610.94,160.95 L 615.26,160.09 L 619.59,159.87 L 623.92,159.50 L 628.25,159.40 L 632.57,158.78 L 636.90,158.17 L 641.23,157.23 L 645.56,156.41 L 649.88,156.11 L 654.21,155.82 L 658.54,155.62 L 662.87,155.04 L 667.19,154.38 L 671.52,153.69 L 675.85,153.03 L 680.18,152.63 L 684.50,152.33 L 688.83,152.26 L 693.16,151.75 L 697.49,151.40 L 701.81,150.70 L 706.14,149.96 L 710.47,149.52 L 714.80,149.22 L 719.12,148.75 L 723.45,148.27 L 727.78,148.11 L 732.11,147.98 L 736.43,147.90 L 740.76,147.81 L 745.09,147.77 L 749.42,147.73 L 753.74,147.66 L 758.07,147.48 L 762.40,147.39 L 766.73,147.23 L 771.05,147.13 L 775.38,147.02 L 779.71,146.97 L 784.04,146.88 L 788.36,146.71 L 792.69,146.55 L 797.02,146.46 L 801.35,146.32 L 805.67,146.22 L 810.00,146.13" fill="none" stroke="#58a6ff" stroke-width="2.5" stroke-linejoin="round" stroke-linecap="round"/>

  <!-- Data points -->
  <circle cx="70.00" cy="277.55" r="2.5" fill="#58a6ff"/><circle cx="74.33" cy="276.48" r="2.5" fill="#58a6ff"/><circle cx="78.65" cy="276.35" r="2.5" fill="#58a6ff"/><circle cx="82.98" cy="276.32" r="2.5" fill="#58a6ff"/><circle cx="87.31" cy="276.19" r="2.5" fill="#58a6ff"/><circle cx="91.64" cy="276.12" r="2.5" fill="#58a6ff"/><circle cx="95.96" cy="275.99" r="2.5" fill="#58a6ff"/><circle cx="100.29" cy="275.68" r="2.5" fill="#58a6ff"/><circle cx="104.62" cy="275.03" r="2.5" fill="#58a6ff"/><circle cx="108.95" cy="274.68" r="2.5" fill="#58a6ff"/><circle cx="113.27" cy="273.50" r="2.5" fill="#58a6ff"/><circle cx="117.60" cy="272.68" r="2.5" fill="#58a6ff"/><circle cx="121.93" cy="270.25" r="2.5" fill="#58a6ff"/><circle cx="126.26" cy="269.27" r="2.5" fill="#58a6ff"/><circle cx="130.58" cy="268.68" r="2.5" fill="#58a6ff"/><circle cx="134.91" cy="268.09" r="2.5" fill="#58a6ff"/><circle cx="139.24" cy="267.94" r="2.5" fill="#58a6ff"/><circle cx="143.57" cy="267.59" r="2.5" fill="#58a6ff"/><circle cx="147.89" cy="267.03" r="2.5" fill="#58a6ff"/><circle cx="152.22" cy="266.11" r="2.5" fill="#58a6ff"/><circle cx="156.55" cy="265.79" r="2.5" fill="#58a6ff"/><circle cx="160.88" cy="265.31" r="2.5" fill="#58a6ff"/><circle cx="165.20" cy="264.84" r="2.5" fill="#58a6ff"/><circle cx="169.53" cy="264.68" r="2.5" fill="#58a6ff"/><circle cx="173.86" cy="264.50" r="2.5" fill="#58a6ff"/><circle cx="178.19" cy="263.90" r="2.5" fill="#58a6ff"/><circle cx="182.51" cy="263.53" r="2.5" fill="#58a6ff"/><circle cx="186.84" cy="263.00" r="2.5" fill="#58a6ff"/><circle cx="191.17" cy="262.62" r="2.5" fill="#58a6ff"/><circle cx="195.50" cy="262.39" r="2.5" fill="#58a6ff"/><circle cx="199.82" cy="262.13" r="2.5" fill="#58a6ff"/><circle cx="204.15" cy="261.78" r="2.5" fill="#58a6ff"/><circle cx="208.48" cy="261.38" r="2.5" fill="#58a6ff"/><circle cx="212.81" cy="260.88" r="2.5" fill="#58a6ff"/><circle cx="217.13" cy="260.38" r="2.5" fill="#58a6ff"/><circle cx="221.46" cy="259.91" r="2.5" fill="#58a6ff"/><circle cx="225.79" cy="259.46" r="2.5" fill="#58a6ff"/><circle cx="230.12" cy="259.30" r="2.5" fill="#58a6ff"/><circle cx="234.44" cy="258.68" r="2.5" fill="#58a6ff"/><circle cx="238.77" cy="257.79" r="2.5" fill="#58a6ff"/><circle cx="243.10" cy="256.75" r="2.5" fill="#58a6ff"/><circle cx="247.43" cy="255.44" r="2.5" fill="#58a6ff"/><circle cx="251.75" cy="252.80" r="2.5" fill="#58a6ff"/><circle cx="256.08" cy="251.03" r="2.5" fill="#58a6ff"/><circle cx="260.41" cy="250.09" r="2.5" fill="#58a6ff"/><circle cx="264.74" cy="249.29" r="2.5" fill="#58a6ff"/><circle cx="269.06" cy="247.10" r="2.5" fill="#58a6ff"/><circle cx="273.39" cy="245.24" r="2.5" fill="#58a6ff"/><circle cx="277.72" cy="243.53" r="2.5" fill="#58a6ff"/><circle cx="282.05" cy="241.59" r="2.5" fill="#58a6ff"/><circle cx="286.37" cy="240.05" r="2.5" fill="#58a6ff"/><circle cx="290.70" cy="239.15" r="2.5" fill="#58a6ff"/><circle cx="295.03" cy="237.85" r="2.5" fill="#58a6ff"/><circle cx="299.36" cy="236.53" r="2.5" fill="#58a6ff"/><circle cx="303.68" cy="234.24" r="2.5" fill="#58a6ff"/><circle cx="308.01" cy="232.42" r="2.5" fill="#58a6ff"/><circle cx="312.34" cy="230.21" r="2.5" fill="#58a6ff"/><circle cx="316.67" cy="228.72" r="2.5" fill="#58a6ff"/><circle cx="320.99" cy="227.70" r="2.5" fill="#58a6ff"/><circle cx="325.32" cy="226.90" r="2.5" fill="#58a6ff"/><circle cx="329.65" cy="226.13" r="2.5" fill="#58a6ff"/><circle cx="333.98" cy="224.51" r="2.5" fill="#58a6ff"/><circle cx="338.30" cy="222.79" r="2.5" fill="#58a6ff"/><circle cx="342.63" cy="221.21" r="2.5" fill="#58a6ff"/><circle cx="346.96" cy="220.03" r="2.5" fill="#58a6ff"/><circle cx="351.29" cy="219.45" r="2.5" fill="#58a6ff"/><circle cx="355.61" cy="218.76" r="2.5" fill="#58a6ff"/><circle cx="359.94" cy="217.41" r="2.5" fill="#58a6ff"/><circle cx="364.27" cy="216.31" r="2.5" fill="#58a6ff"/><circle cx="368.60" cy="214.88" r="2.5" fill="#58a6ff"/><circle cx="372.92" cy="213.65" r="2.5" fill="#58a6ff"/><circle cx="377.25" cy="212.43" r="2.5" fill="#58a6ff"/><circle cx="381.58" cy="211.24" r="2.5" fill="#58a6ff"/><circle cx="385.91" cy="210.76" r="2.5" fill="#58a6ff"/><circle cx="390.23" cy="209.87" r="2.5" fill="#58a6ff"/><circle cx="394.56" cy="208.48" r="2.5" fill="#58a6ff"/><circle cx="398.89" cy="207.50" r="2.5" fill="#58a6ff"/><circle cx="403.22" cy="205.70" r="2.5" fill="#58a6ff"/><circle cx="407.54" cy="204.33" r="2.5" fill="#58a6ff"/><circle cx="411.87" cy="203.31" r="2.5" fill="#58a6ff"/><circle cx="416.20" cy="202.31" r="2.5" fill="#58a6ff"/><circle cx="420.53" cy="200.91" r="2.5" fill="#58a6ff"/><circle cx="424.85" cy="199.41" r="2.5" fill="#58a6ff"/><circle cx="429.18" cy="197.83" r="2.5" fill="#58a6ff"/><circle cx="433.51" cy="195.01" r="2.5" fill="#58a6ff"/><circle cx="437.84" cy="194.08" r="2.5" fill="#58a6ff"/><circle cx="442.16" cy="193.52" r="2.5" fill="#58a6ff"/><circle cx="446.49" cy="192.76" r="2.5" fill="#58a6ff"/><circle cx="450.82" cy="191.12" r="2.5" fill="#58a6ff"/><circle cx="455.15" cy="189.81" r="2.5" fill="#58a6ff"/><circle cx="459.47" cy="188.59" r="2.5" fill="#58a6ff"/><circle cx="463.80" cy="187.47" r="2.5" fill="#58a6ff"/><circle cx="468.13" cy="186.30" r="2.5" fill="#58a6ff"/><circle cx="472.46" cy="186.01" r="2.5" fill="#58a6ff"/><circle cx="476.78" cy="185.26" r="2.5" fill="#58a6ff"/><circle cx="481.11" cy="184.41" r="2.5" fill="#58a6ff"/><circle cx="485.44" cy="182.49" r="2.5" fill="#58a6ff"/><circle cx="489.77" cy="181.48" r="2.5" fill="#58a6ff"/><circle cx="494.09" cy="180.33" r="2.5" fill="#58a6ff"/><circle cx="498.42" cy="179.86" r="2.5" fill="#58a6ff"/><circle cx="502.75" cy="179.46" r="2.5" fill="#58a6ff"/><circle cx="507.08" cy="179.15" r="2.5" fill="#58a6ff"/><circle cx="511.40" cy="178.19" r="2.5" fill="#58a6ff"/><circle cx="515.73" cy="176.69" r="2.5" fill="#58a6ff"/><circle cx="520.06" cy="175.43" r="2.5" fill="#58a6ff"/><circle cx="524.39" cy="174.55" r="2.5" fill="#58a6ff"/><circle cx="528.71" cy="173.85" r="2.5" fill="#58a6ff"/><circle cx="533.04" cy="173.49" r="2.5" fill="#58a6ff"/><circle cx="537.37" cy="173.28" r="2.5" fill="#58a6ff"/><circle cx="541.70" cy="172.38" r="2.5" fill="#58a6ff"/><circle cx="546.02" cy="171.45" r="2.5" fill="#58a6ff"/><circle cx="550.35" cy="170.62" r="2.5" fill="#58a6ff"/><circle cx="554.68" cy="169.43" r="2.5" fill="#58a6ff"/><circle cx="559.01" cy="169.11" r="2.5" fill="#58a6ff"/><circle cx="563.33" cy="168.88" r="2.5" fill="#58a6ff"/><circle cx="567.66" cy="168.68" r="2.5" fill="#58a6ff"/><circle cx="571.99" cy="167.78" r="2.5" fill="#58a6ff"/><circle cx="576.32" cy="166.50" r="2.5" fill="#58a6ff"/><circle cx="580.64" cy="165.37" r="2.5" fill="#58a6ff"/><circle cx="584.97" cy="164.35" r="2.5" fill="#58a6ff"/><circle cx="589.30" cy="163.70" r="2.5" fill="#58a6ff"/><circle cx="593.63" cy="163.37" r="2.5" fill="#58a6ff"/><circle cx="597.95" cy="162.86" r="2.5" fill="#58a6ff"/><circle cx="602.28" cy="162.25" r="2.5" fill="#58a6ff"/><circle cx="606.61" cy="161.59" r="2.5" fill="#58a6ff"/><circle cx="610.94" cy="160.95" r="2.5" fill="#58a6ff"/><circle cx="615.26" cy="160.09" r="2.5" fill="#58a6ff"/><circle cx="619.59" cy="159.87" r="2.5" fill="#58a6ff"/><circle cx="623.92" cy="159.50" r="2.5" fill="#58a6ff"/><circle cx="628.25" cy="159.40" r="2.5" fill="#58a6ff"/><circle cx="632.57" cy="158.78" r="2.5" fill="#58a6ff"/><circle cx="636.90" cy="158.17" r="2.5" fill="#58a6ff"/><circle cx="641.23" cy="157.23" r="2.5" fill="#58a6ff"/><circle cx="645.56" cy="156.41" r="2.5" fill="#58a6ff"/><circle cx="649.88" cy="156.11" r="2.5" fill="#58a6ff"/><circle cx="654.21" cy="155.82" r="2.5" fill="#58a6ff"/><circle cx="658.54" cy="155.62" r="2.5" fill="#58a6ff"/><circle cx="662.87" cy="155.04" r="2.5" fill="#58a6ff"/><circle cx="667.19" cy="154.38" r="2.5" fill="#58a6ff"/><circle cx="671.52" cy="153.69" r="2.5" fill="#58a6ff"/><circle cx="675.85" cy="153.03" r="2.5" fill="#58a6ff"/><circle cx="680.18" cy="152.63" r="2.5" fill="#58a6ff"/><circle cx="684.50" cy="152.33" r="2.5" fill="#58a6ff"/><circle cx="688.83" cy="152.26" r="2.5" fill="#58a6ff"/><circle cx="693.16" cy="151.75" r="2.5" fill="#58a6ff"/><circle cx="697.49" cy="151.40" r="2.5" fill="#58a6ff"/><circle cx="701.81" cy="150.70" r="2.5" fill="#58a6ff"/><circle cx="706.14" cy="149.96" r="2.5" fill="#58a6ff"/><circle cx="710.47" cy="149.52" r="2.5" fill="#58a6ff"/><circle cx="714.80" cy="149.22" r="2.5" fill="#58a6ff"/><circle cx="719.12" cy="148.75" r="2.5" fill="#58a6ff"/><circle cx="723.45" cy="148.27" r="2.5" fill="#58a6ff"/><circle cx="727.78" cy="148.11" r="2.5" fill="#58a6ff"/><circle cx="732.11" cy="147.98" r="2.5" fill="#58a6ff"/><circle cx="736.43" cy="147.90" r="2.5" fill="#58a6ff"/><circle cx="740.76" cy="147.81" r="2.5" fill="#58a6ff"/><circle cx="745.09" cy="147.77" r="2.5" fill="#58a6ff"/><circle cx="749.42" cy="147.73" r="2.5" fill="#58a6ff"/><circle cx="753.74" cy="147.66" r="2.5" fill="#58a6ff"/><circle cx="758.07" cy="147.48" r="2.5" fill="#58a6ff"/><circle cx="762.40" cy="147.39" r="2.5" fill="#58a6ff"/><circle cx="766.73" cy="147.23" r="2.5" fill="#58a6ff"/><circle cx="771.05" cy="147.13" r="2.5" fill="#58a6ff"/><circle cx="775.38" cy="147.02" r="2.5" fill="#58a6ff"/><circle cx="779.71" cy="146.97" r="2.5" fill="#58a6ff"/><circle cx="784.04" cy="146.88" r="2.5" fill="#58a6ff"/><circle cx="788.36" cy="146.71" r="2.5" fill="#58a6ff"/><circle cx="792.69" cy="146.55" r="2.5" fill="#58a6ff"/><circle cx="797.02" cy="146.46" r="2.5" fill="#58a6ff"/><circle cx="801.35" cy="146.32" r="2.5" fill="#58a6ff"/><circle cx="805.67" cy="146.22" r="2.5" fill="#58a6ff"/><circle cx="810.00" cy="146.13" r="4" fill="#F2C811"/>

  <!-- Last-value callout -->
  <rect x="720.0" y="118.1" width="82" height="24" rx="4" fill="#0d1a2a" stroke="#F2C811" stroke-width="1"/>
  <text x="761.0" y="134.1" font-family="'Segoe UI', Arial, sans-serif" font-size="12" fill="#F2C811" text-anchor="middle" font-weight="bold">33,137 total</text>

  <!-- X-axis labels -->
  <text x="70.0" y="298" font-family="'Segoe UI', Arial, sans-serif" font-size="10" fill="#8b949e" text-anchor="middle">Mar 26</text><text x="256.1" y="298" font-family="'Segoe UI', Arial, sans-serif" font-size="10" fill="#8b949e" text-anchor="middle">May 08</text><text x="442.2" y="298" font-family="'Segoe UI', Arial, sans-serif" font-size="10" fill="#8b949e" text-anchor="middle">Jun 20</text><text x="628.2" y="298" font-family="'Segoe UI', Arial, sans-serif" font-size="10" fill="#8b949e" text-anchor="middle">Aug 02</text><text x="810.0" y="298" font-family="'Segoe UI', Arial, sans-serif" font-size="10" fill="#8b949e" text-anchor="middle">Sep 13</text>

  <!-- Footer: date range -->
  <text x="70" y="328" font-family="'Segoe UI', Arial, sans-serif" font-size="10" fill="#8b949e">Mar 26, 2026 → Sep 13, 2026</text>
  <text x="810" y="328" font-family="'Segoe UI', Arial, sans-serif" font-size="10" fill="#8b949e" text-anchor="end">172 days of data</text>
</svg>
