<svg xmlns="http://www.w3.org/2000/svg" width="850" height="340" viewBox="0 0 850 340">
  <defs>
    <linearGradient id="areaFill" x1="0" y1="0" x2="0" y2="1">
      <stop offset="0%" stop-color="#58a6ff" stop-opacity="0.45"/>
      <stop offset="100%" stop-color="#58a6ff" stop-opacity="0"/>
    </linearGradient>
  </defs>

  <!-- Background -->
  <rect width="100%" height="100%" fill="#0d1117" rx="8"/>

  <!-- Title -->
  <text x="425" y="33" font-family="'Segoe UI', Arial, sans-serif" font-size="17" fill="#F2C811" text-anchor="middle" font-weight="bold">pbi-cli Downloads Over Time</text>
  <text x="425" y="52" font-family="'Segoe UI', Arial, sans-serif" font-size="11" fill="#8b949e" text-anchor="middle">Cumulative installs from PyPI • mirrors excluded • source: pypistats.org</text>

  <!-- Gridlines & y-labels -->
  <line x1="70" y1="280.0" x2="810" y2="280.0" stroke="#21262d" stroke-width="1" stroke-dasharray="2,3"/><line x1="70" y1="239.6" x2="810" y2="239.6" stroke="#21262d" stroke-width="1" stroke-dasharray="2,3"/><line x1="70" y1="199.2" x2="810" y2="199.2" stroke="#21262d" stroke-width="1" stroke-dasharray="2,3"/><line x1="70" y1="158.8" x2="810" y2="158.8" stroke="#21262d" stroke-width="1" stroke-dasharray="2,3"/><line x1="70" y1="118.4" x2="810" y2="118.4" stroke="#21262d" stroke-width="1" stroke-dasharray="2,3"/><line x1="70" y1="78.0" x2="810" y2="78.0" stroke="#21262d" stroke-width="1" stroke-dasharray="2,3"/>
  <text x="62" y="284.0" font-family="'Segoe UI', Arial, sans-serif" font-size="10" fill="#8b949e" text-anchor="end">0</text><text x="62" y="243.6" font-family="'Segoe UI', Arial, sans-serif" font-size="10" fill="#8b949e" text-anchor="end">10,000</text><text x="62" y="203.2" font-family="'Segoe UI', Arial, sans-serif" font-size="10" fill="#8b949e" text-anchor="end">20,000</text><text x="62" y="162.8" font-family="'Segoe UI', Arial, sans-serif" font-size="10" fill="#8b949e" text-anchor="end">30,000</text><text x="62" y="122.4" font-family="'Segoe UI', Arial, sans-serif" font-size="10" fill="#8b949e" text-anchor="end">40,000</text><text x="62" y="82.0" font-family="'Segoe UI', Arial, sans-serif" font-size="10" fill="#8b949e" text-anchor="end">50,000</text>

  <!-- Area fill -->
  <path d="M 70.00,280 L 70.00,277.55 L 74.81,276.48 L 79.61,276.35 L 84.42,276.32 L 89.22,276.19 L 94.03,276.12 L 98.83,275.99 L 103.64,275.68 L 108.44,275.03 L 113.25,274.68 L 118.05,273.50 L 122.86,272.68 L 127.66,270.25 L 132.47,269.27 L 137.27,268.68 L 142.08,268.09 L 146.88,267.94 L 151.69,267.59 L 156.49,267.03 L 161.30,266.11 L 166.10,265.79 L 170.91,265.31 L 175.71,264.84 L 180.52,264.68 L 185.32,264.50 L 190.13,263.90 L 194.94,263.53 L 199.74,263.00 L 204.55,262.62 L 209.35,262.39 L 214.16,262.13 L 218.96,261.78 L 223.77,261.38 L 228.57,260.88 L 233.38,260.38 L 238.18,259.91 L 242.99,259.46 L 247.79,259.30 L 252.60,258.68 L 257.40,257.79 L 262.21,256.75 L 267.01,255.44 L 271.82,252.80 L 276.62,251.03 L 281.43,250.09 L 286.23,249.29 L 291.04,247.10 L 295.84,245.24 L 300.65,243.53 L 305.45,241.59 L 310.26,240.05 L 315.06,239.15 L 319.87,237.85 L 324.68,236.53 L 329.48,234.24 L 334.29,232.42 L 339.09,230.21 L 343.90,228.72 L 348.70,227.70 L 353.51,226.90 L 358.31,226.13 L 363.12,224.51 L 367.92,222.79 L 372.73,221.21 L 377.53,220.03 L 382.34,219.45 L 387.14,218.76 L 391.95,217.41 L 396.75,216.31 L 401.56,214.88 L 406.36,213.65 L 411.17,212.43 L 415.97,211.24 L 420.78,210.76 L 425.58,209.87 L 430.39,208.48 L 435.19,207.50 L 440.00,205.70 L 444.81,204.33 L 449.61,203.31 L 454.42,202.31 L 459.22,200.91 L 464.03,199.41 L 468.83,197.83 L 473.64,195.01 L 478.44,194.08 L 483.25,193.52 L 488.05,192.76 L 492.86,191.12 L 497.66,189.81 L 502.47,188.59 L 507.27,187.47 L 512.08,186.30 L 516.88,186.01 L 521.69,185.26 L 526.49,184.41 L 531.30,182.49 L 536.10,181.48 L 540.91,180.33 L 545.71,179.86 L 550.52,179.46 L 555.32,179.15 L 560.13,178.19 L 564.94,176.69 L 569.74,175.43 L 574.55,174.55 L 579.35,173.85 L 584.16,173.49 L 588.96,173.28 L 593.77,172.38 L 598.57,171.45 L 603.38,170.62 L 608.18,169.43 L 612.99,169.11 L 617.79,168.88 L 622.60,168.68 L 627.40,167.78 L 632.21,166.50 L 637.01,165.37 L 641.82,164.35 L 646.62,163.70 L 651.43,163.37 L 656.23,162.86 L 661.04,162.25 L 665.84,161.59 L 670.65,160.95 L 675.45,160.09 L 680.26,159.87 L 685.06,159.50 L 689.87,159.40 L 694.68,158.78 L 699.48,158.17 L 704.29,157.23 L 709.09,156.41 L 713.90,156.11 L 718.70,155.82 L 723.51,155.62 L 728.31,155.04 L 733.12,154.38 L 737.92,153.69 L 742.73,153.03 L 747.53,152.63 L 752.34,152.33 L 757.14,152.26 L 761.95,151.75 L 766.75,151.40 L 771.56,150.70 L 776.36,149.96 L 781.17,149.52 L 785.97,149.22 L 790.78,148.75 L 795.58,148.27 L 800.39,148.11 L 805.19,147.98 L 810.00,147.90 L 810.00,280 Z" fill="url(#areaFill)"/>

  <!-- Line -->
  <path d="M 70.00,277.55 L 74.81,276.48 L 79.61,276.35 L 84.42,276.32 L 89.22,276.19 L 94.03,276.12 L 98.83,275.99 L 103.64,275.68 L 108.44,275.03 L 113.25,274.68 L 118.05,273.50 L 122.86,272.68 L 127.66,270.25 L 132.47,269.27 L 137.27,268.68 L 142.08,268.09 L 146.88,267.94 L 151.69,267.59 L 156.49,267.03 L 161.30,266.11 L 166.10,265.79 L 170.91,265.31 L 175.71,264.84 L 180.52,264.68 L 185.32,264.50 L 190.13,263.90 L 194.94,263.53 L 199.74,263.00 L 204.55,262.62 L 209.35,262.39 L 214.16,262.13 L 218.96,261.78 L 223.77,261.38 L 228.57,260.88 L 233.38,260.38 L 238.18,259.91 L 242.99,259.46 L 247.79,259.30 L 252.60,258.68 L 257.40,257.79 L 262.21,256.75 L 267.01,255.44 L 271.82,252.80 L 276.62,251.03 L 281.43,250.09 L 286.23,249.29 L 291.04,247.10 L 295.84,245.24 L 300.65,243.53 L 305.45,241.59 L 310.26,240.05 L 315.06,239.15 L 319.87,237.85 L 324.68,236.53 L 329.48,234.24 L 334.29,232.42 L 339.09,230.21 L 343.90,228.72 L 348.70,227.70 L 353.51,226.90 L 358.31,226.13 L 363.12,224.51 L 367.92,222.79 L 372.73,221.21 L 377.53,220.03 L 382.34,219.45 L 387.14,218.76 L 391.95,217.41 L 396.75,216.31 L 401.56,214.88 L 406.36,213.65 L 411.17,212.43 L 415.97,211.24 L 420.78,210.76 L 425.58,209.87 L 430.39,208.48 L 435.19,207.50 L 440.00,205.70 L 444.81,204.33 L 449.61,203.31 L 454.42,202.31 L 459.22,200.91 L 464.03,199.41 L 468.83,197.83 L 473.64,195.01 L 478.44,194.08 L 483.25,193.52 L 488.05,192.76 L 492.86,191.12 L 497.66,189.81 L 502.47,188.59 L 507.27,187.47 L 512.08,186.30 L 516.88,186.01 L 521.69,185.26 L 526.49,184.41 L 531.30,182.49 L 536.10,181.48 L 540.91,180.33 L 545.71,179.86 L 550.52,179.46 L 555.32,179.15 L 560.13,178.19 L 564.94,176.69 L 569.74,175.43 L 574.55,174.55 L 579.35,173.85 L 584.16,173.49 L 588.96,173.28 L 593.77,172.38 L 598.57,171.45 L 603.38,170.62 L 608.18,169.43 L 612.99,169.11 L 617.79,168.88 L 622.60,168.68 L 627.40,167.78 L 632.21,166.50 L 637.01,165.37 L 641.82,164.35 L 646.62,163.70 L 651.43,163.37 L 656.23,162.86 L 661.04,162.25 L 665.84,161.59 L 670.65,160.95 L 675.45,160.09 L 680.26,159.87 L 685.06,159.50 L 689.87,159.40 L 694.68,158.78 L 699.48,158.17 L 704.29,157.23 L 709.09,156.41 L 713.90,156.11 L 718.70,155.82 L 723.51,155.62 L 728.31,155.04 L 733.12,154.38 L 737.92,153.69 L 742.73,153.03 L 747.53,152.63 L 752.34,152.33 L 757.14,152.26 L 761.95,151.75 L 766.75,151.40 L 771.56,150.70 L 776.36,149.96 L 781.17,149.52 L 785.97,149.22 L 790.78,148.75 L 795.58,148.27 L 800.39,148.11 L 805.19,147.98 L 810.00,147.90" fill="none" stroke="#58a6ff" stroke-width="2.5" stroke-linejoin="round" stroke-linecap="round"/>

  <!-- Data points -->
  <circle cx="70.00" cy="277.55" r="2.5" fill="#58a6ff"/><circle cx="74.81" cy="276.48" r="2.5" fill="#58a6ff"/><circle cx="79.61" cy="276.35" r="2.5" fill="#58a6ff"/><circle cx="84.42" cy="276.32" r="2.5" fill="#58a6ff"/><circle cx="89.22" cy="276.19" r="2.5" fill="#58a6ff"/><circle cx="94.03" cy="276.12" r="2.5" fill="#58a6ff"/><circle cx="98.83" cy="275.99" r="2.5" fill="#58a6ff"/><circle cx="103.64" cy="275.68" r="2.5" fill="#58a6ff"/><circle cx="108.44" cy="275.03" r="2.5" fill="#58a6ff"/><circle cx="113.25" cy="274.68" r="2.5" fill="#58a6ff"/><circle cx="118.05" cy="273.50" r="2.5" fill="#58a6ff"/><circle cx="122.86" cy="272.68" r="2.5" fill="#58a6ff"/><circle cx="127.66" cy="270.25" r="2.5" fill="#58a6ff"/><circle cx="132.47" cy="269.27" r="2.5" fill="#58a6ff"/><circle cx="137.27" cy="268.68" r="2.5" fill="#58a6ff"/><circle cx="142.08" cy="268.09" r="2.5" fill="#58a6ff"/><circle cx="146.88" cy="267.94" r="2.5" fill="#58a6ff"/><circle cx="151.69" cy="267.59" r="2.5" fill="#58a6ff"/><circle cx="156.49" cy="267.03" r="2.5" fill="#58a6ff"/><circle cx="161.30" cy="266.11" r="2.5" fill="#58a6ff"/><circle cx="166.10" cy="265.79" r="2.5" fill="#58a6ff"/><circle cx="170.91" cy="265.31" r="2.5" fill="#58a6ff"/><circle cx="175.71" cy="264.84" r="2.5" fill="#58a6ff"/><circle cx="180.52" cy="264.68" r="2.5" fill="#58a6ff"/><circle cx="185.32" cy="264.50" r="2.5" fill="#58a6ff"/><circle cx="190.13" cy="263.90" r="2.5" fill="#58a6ff"/><circle cx="194.94" cy="263.53" r="2.5" fill="#58a6ff"/><circle cx="199.74" cy="263.00" r="2.5" fill="#58a6ff"/><circle cx="204.55" cy="262.62" r="2.5" fill="#58a6ff"/><circle cx="209.35" cy="262.39" r="2.5" fill="#58a6ff"/><circle cx="214.16" cy="262.13" r="2.5" fill="#58a6ff"/><circle cx="218.96" cy="261.78" r="2.5" fill="#58a6ff"/><circle cx="223.77" cy="261.38" r="2.5" fill="#58a6ff"/><circle cx="228.57" cy="260.88" r="2.5" fill="#58a6ff"/><circle cx="233.38" cy="260.38" r="2.5" fill="#58a6ff"/><circle cx="238.18" cy="259.91" r="2.5" fill="#58a6ff"/><circle cx="242.99" cy="259.46" r="2.5" fill="#58a6ff"/><circle cx="247.79" cy="259.30" r="2.5" fill="#58a6ff"/><circle cx="252.60" cy="258.68" r="2.5" fill="#58a6ff"/><circle cx="257.40" cy="257.79" r="2.5" fill="#58a6ff"/><circle cx="262.21" cy="256.75" r="2.5" fill="#58a6ff"/><circle cx="267.01" cy="255.44" r="2.5" fill="#58a6ff"/><circle cx="271.82" cy="252.80" r="2.5" fill="#58a6ff"/><circle cx="276.62" cy="251.03" r="2.5" fill="#58a6ff"/><circle cx="281.43" cy="250.09" r="2.5" fill="#58a6ff"/><circle cx="286.23" cy="249.29" r="2.5" fill="#58a6ff"/><circle cx="291.04" cy="247.10" r="2.5" fill="#58a6ff"/><circle cx="295.84" cy="245.24" r="2.5" fill="#58a6ff"/><circle cx="300.65" cy="243.53" r="2.5" fill="#58a6ff"/><circle cx="305.45" cy="241.59" r="2.5" fill="#58a6ff"/><circle cx="310.26" cy="240.05" r="2.5" fill="#58a6ff"/><circle cx="315.06" cy="239.15" r="2.5" fill="#58a6ff"/><circle cx="319.87" cy="237.85" r="2.5" fill="#58a6ff"/><circle cx="324.68" cy="236.53" r="2.5" fill="#58a6ff"/><circle cx="329.48" cy="234.24" r="2.5" fill="#58a6ff"/><circle cx="334.29" cy="232.42" r="2.5" fill="#58a6ff"/><circle cx="339.09" cy="230.21" r="2.5" fill="#58a6ff"/><circle cx="343.90" cy="228.72" r="2.5" fill="#58a6ff"/><circle cx="348.70" cy="227.70" r="2.5" fill="#58a6ff"/><circle cx="353.51" cy="226.90" r="2.5" fill="#58a6ff"/><circle cx="358.31" cy="226.13" r="2.5" fill="#58a6ff"/><circle cx="363.12" cy="224.51" r="2.5" fill="#58a6ff"/><circle cx="367.92" cy="222.79" r="2.5" fill="#58a6ff"/><circle cx="372.73" cy="221.21" r="2.5" fill="#58a6ff"/><circle cx="377.53" cy="220.03" r="2.5" fill="#58a6ff"/><circle cx="382.34" cy="219.45" r="2.5" fill="#58a6ff"/><circle cx="387.14" cy="218.76" r="2.5" fill="#58a6ff"/><circle cx="391.95" cy="217.41" r="2.5" fill="#58a6ff"/><circle cx="396.75" cy="216.31" r="2.5" fill="#58a6ff"/><circle cx="401.56" cy="214.88" r="2.5" fill="#58a6ff"/><circle cx="406.36" cy="213.65" r="2.5" fill="#58a6ff"/><circle cx="411.17" cy="212.43" r="2.5" fill="#58a6ff"/><circle cx="415.97" cy="211.24" r="2.5" fill="#58a6ff"/><circle cx="420.78" cy="210.76" r="2.5" fill="#58a6ff"/><circle cx="425.58" cy="209.87" r="2.5" fill="#58a6ff"/><circle cx="430.39" cy="208.48" r="2.5" fill="#58a6ff"/><circle cx="435.19" cy="207.50" r="2.5" fill="#58a6ff"/><circle cx="440.00" cy="205.70" r="2.5" fill="#58a6ff"/><circle cx="444.81" cy="204.33" r="2.5" fill="#58a6ff"/><circle cx="449.61" cy="203.31" r="2.5" fill="#58a6ff"/><circle cx="454.42" cy="202.31" r="2.5" fill="#58a6ff"/><circle cx="459.22" cy="200.91" r="2.5" fill="#58a6ff"/><circle cx="464.03" cy="199.41" r="2.5" fill="#58a6ff"/><circle cx="468.83" cy="197.83" r="2.5" fill="#58a6ff"/><circle cx="473.64" cy="195.01" r="2.5" fill="#58a6ff"/><circle cx="478.44" cy="194.08" r="2.5" fill="#58a6ff"/><circle cx="483.25" cy="193.52" r="2.5" fill="#58a6ff"/><circle cx="488.05" cy="192.76" r="2.5" fill="#58a6ff"/><circle cx="492.86" cy="191.12" r="2.5" fill="#58a6ff"/><circle cx="497.66" cy="189.81" r="2.5" fill="#58a6ff"/><circle cx="502.47" cy="188.59" r="2.5" fill="#58a6ff"/><circle cx="507.27" cy="187.47" r="2.5" fill="#58a6ff"/><circle cx="512.08" cy="186.30" r="2.5" fill="#58a6ff"/><circle cx="516.88" cy="186.01" r="2.5" fill="#58a6ff"/><circle cx="521.69" cy="185.26" r="2.5" fill="#58a6ff"/><circle cx="526.49" cy="184.41" r="2.5" fill="#58a6ff"/><circle cx="531.30" cy="182.49" r="2.5" fill="#58a6ff"/><circle cx="536.10" cy="181.48" r="2.5" fill="#58a6ff"/><circle cx="540.91" cy="180.33" r="2.5" fill="#58a6ff"/><circle cx="545.71" cy="179.86" r="2.5" fill="#58a6ff"/><circle cx="550.52" cy="179.46" r="2.5" fill="#58a6ff"/><circle cx="555.32" cy="179.15" r="2.5" fill="#58a6ff"/><circle cx="560.13" cy="178.19" r="2.5" fill="#58a6ff"/><circle cx="564.94" cy="176.69" r="2.5" fill="#58a6ff"/><circle cx="569.74" cy="175.43" r="2.5" fill="#58a6ff"/><circle cx="574.55" cy="174.55" r="2.5" fill="#58a6ff"/><circle cx="579.35" cy="173.85" r="2.5" fill="#58a6ff"/><circle cx="584.16" cy="173.49" r="2.5" fill="#58a6ff"/><circle cx="588.96" cy="173.28" r="2.5" fill="#58a6ff"/><circle cx="593.77" cy="172.38" r="2.5" fill="#58a6ff"/><circle cx="598.57" cy="171.45" r="2.5" fill="#58a6ff"/><circle cx="603.38" cy="170.62" r="2.5" fill="#58a6ff"/><circle cx="608.18" cy="169.43" r="2.5" fill="#58a6ff"/><circle cx="612.99" cy="169.11" r="2.5" fill="#58a6ff"/><circle cx="617.79" cy="168.88" r="2.5" fill="#58a6ff"/><circle cx="622.60" cy="168.68" r="2.5" fill="#58a6ff"/><circle cx="627.40" cy="167.78" r="2.5" fill="#58a6ff"/><circle cx="632.21" cy="166.50" r="2.5" fill="#58a6ff"/><circle cx="637.01" cy="165.37" r="2.5" fill="#58a6ff"/><circle cx="641.82" cy="164.35" r="2.5" fill="#58a6ff"/><circle cx="646.62" cy="163.70" r="2.5" fill="#58a6ff"/><circle cx="651.43" cy="163.37" r="2.5" fill="#58a6ff"/><circle cx="656.23" cy="162.86" r="2.5" fill="#58a6ff"/><circle cx="661.04" cy="162.25" r="2.5" fill="#58a6ff"/><circle cx="665.84" cy="161.59" r="2.5" fill="#58a6ff"/><circle cx="670.65" cy="160.95" r="2.5" fill="#58a6ff"/><circle cx="675.45" cy="160.09" r="2.5" fill="#58a6ff"/><circle cx="680.26" cy="159.87" r="2.5" fill="#58a6ff"/><circle cx="685.06" cy="159.50" r="2.5" fill="#58a6ff"/><circle cx="689.87" cy="159.40" r="2.5" fill="#58a6ff"/><circle cx="694.68" cy="158.78" r="2.5" fill="#58a6ff"/><circle cx="699.48" cy="158.17" r="2.5" fill="#58a6ff"/><circle cx="704.29" cy="157.23" r="2.5" fill="#58a6ff"/><circle cx="709.09" cy="156.41" r="2.5" fill="#58a6ff"/><circle cx="713.90" cy="156.11" r="2.5" fill="#58a6ff"/><circle cx="718.70" cy="155.82" r="2.5" fill="#58a6ff"/><circle cx="723.51" cy="155.62" r="2.5" fill="#58a6ff"/><circle cx="728.31" cy="155.04" r="2.5" fill="#58a6ff"/><circle cx="733.12" cy="154.38" r="2.5" fill="#58a6ff"/><circle cx="737.92" cy="153.69" r="2.5" fill="#58a6ff"/><circle cx="742.73" cy="153.03" r="2.5" fill="#58a6ff"/><circle cx="747.53" cy="152.63" r="2.5" fill="#58a6ff"/><circle cx="752.34" cy="152.33" r="2.5" fill="#58a6ff"/><circle cx="757.14" cy="152.26" r="2.5" fill="#58a6ff"/><circle cx="761.95" cy="151.75" r="2.5" fill="#58a6ff"/><circle cx="766.75" cy="151.40" r="2.5" fill="#58a6ff"/><circle cx="771.56" cy="150.70" r="2.5" fill="#58a6ff"/><circle cx="776.36" cy="149.96" r="2.5" fill="#58a6ff"/><circle cx="781.17" cy="149.52" r="2.5" fill="#58a6ff"/><circle cx="785.97" cy="149.22" r="2.5" fill="#58a6ff"/><circle cx="790.78" cy="148.75" r="2.5" fill="#58a6ff"/><circle cx="795.58" cy="148.27" r="2.5" fill="#58a6ff"/><circle cx="800.39" cy="148.11" r="2.5" fill="#58a6ff"/><circle cx="805.19" cy="147.98" r="2.5" fill="#58a6ff"/><circle cx="810.00" cy="147.90" r="4" fill="#F2C811"/>

  <!-- Last-value callout -->
  <rect x="720.0" y="119.9" width="82" height="24" rx="4" fill="#0d1a2a" stroke="#F2C811" stroke-width="1"/>
  <text x="761.0" y="135.9" font-family="'Segoe UI', Arial, sans-serif" font-size="12" fill="#F2C811" text-anchor="middle" font-weight="bold">32,698 total</text>

  <!-- X-axis labels -->
  <text x="70.0" y="298" font-family="'Segoe UI', Arial, sans-serif" font-size="10" fill="#8b949e" text-anchor="middle">Mar 26</text><text x="252.6" y="298" font-family="'Segoe UI', Arial, sans-serif" font-size="10" fill="#8b949e" text-anchor="middle">May 03</text><text x="440.0" y="298" font-family="'Segoe UI', Arial, sans-serif" font-size="10" fill="#8b949e" text-anchor="middle">Jun 11</text><text x="627.4" y="298" font-family="'Segoe UI', Arial, sans-serif" font-size="10" fill="#8b949e" text-anchor="middle">Jul 20</text><text x="810.0" y="298" font-family="'Segoe UI', Arial, sans-serif" font-size="10" fill="#8b949e" text-anchor="middle">Aug 27</text>

  <!-- Footer: date range -->
  <text x="70" y="328" font-family="'Segoe UI', Arial, sans-serif" font-size="10" fill="#8b949e">Mar 26, 2026 → Aug 27, 2026</text>
  <text x="810" y="328" font-family="'Segoe UI', Arial, sans-serif" font-size="10" fill="#8b949e" text-anchor="end">155 days of data</text>
</svg>
